<svg width="25" height="24" viewBox="0 0 25 24" fill="none" xmlns="http://www.w3.org/2000/svg">
<rect x="0.256836" width="24" height="24" rx="12" fill="#D7000F"/>
<path d="M11.6598 3.50657C10.5697 3.58149 9.40951 3.89812 8.43057 4.39122C7.93025 4.64018 7.37429 5.00275 6.8788 5.39914C6.55734 5.65535 5.8878 6.32731 5.62433 6.65844C4.75658 7.74855 4.16925 9.0006 3.90818 10.3083C3.77524 10.9778 3.76074 11.147 3.76074 12.0002C3.76074 12.6359 3.77041 12.8559 3.80424 13.0879C4.04354 14.7146 4.58739 16.0005 5.57598 17.2816C5.84186 17.6248 6.57425 18.3644 6.91505 18.6352C7.77312 19.312 8.5877 19.7519 9.59804 20.0854C11.7347 20.7936 14.0769 20.6172 16.0855 19.602C17.369 18.9542 18.4978 17.956 19.3051 16.7619C19.9843 15.7564 20.4097 14.7098 20.6297 13.5109C20.7312 12.9502 20.7529 12.6891 20.7529 12.0002C20.7529 11.1664 20.6877 10.6346 20.4992 9.88527C20.0931 8.28032 19.1673 6.75755 17.9298 5.66019C16.1846 4.11084 13.9682 3.34944 11.6598 3.50657ZM13.1608 4.09634C14.2026 4.21717 15.2178 4.54833 16.1314 5.06076C18.169 6.20403 19.6338 8.22473 20.0617 10.4896C20.1462 10.9416 20.1559 10.8859 19.9746 10.9198C19.4767 11.0141 18.6839 11.4926 17.2747 12.5562C16.8024 12.9112 16.3303 13.2665 15.8583 13.6221C14.8335 14.3956 14.4926 14.601 13.9512 14.7847C13.7409 14.8572 13.6515 14.8742 13.4533 14.8814C13.2382 14.8911 13.1995 14.8862 13.1028 14.8355C12.9506 14.7557 12.8974 14.6542 12.8998 14.4415C12.9022 14.2336 12.9288 14.1418 13.1463 13.6197C13.3518 13.1266 13.376 13.0299 13.3639 12.8148C13.3542 12.6118 13.2841 12.5054 13.1101 12.4208C13.011 12.37 12.9602 12.3628 12.7644 12.3652C12.5662 12.3676 12.4913 12.3821 12.2327 12.4667C10.9008 12.8946 9.91709 13.0758 8.90431 13.0758C7.97616 13.0758 7.30662 12.9332 6.61292 12.5852C6.25276 12.4063 5.96996 12.2033 5.6485 11.8915C5.22068 11.4757 4.94996 11.0938 4.66475 10.5041L4.51489 10.1922L4.54389 10.0448C4.58255 9.85627 4.7445 9.35834 4.86052 9.06346C5.64367 7.10801 7.19302 5.5176 9.12186 4.68852C9.98478 4.31869 10.7872 4.13259 11.858 4.05039C12.078 4.03348 12.8611 4.06248 13.1608 4.09634ZM4.59462 12.6794C5.08771 13.0734 5.65814 13.3852 6.25274 13.581C6.91503 13.801 7.47338 13.8976 8.07766 13.8976C8.96231 13.8976 9.75271 13.6994 11.3262 13.0806C11.6985 12.9356 12.1287 12.7761 12.281 12.7253C12.7499 12.5731 13.04 12.5852 13.1052 12.7568C13.1439 12.8583 13.0786 13.0806 12.8828 13.494C12.6194 14.0596 12.5638 14.2408 12.5614 14.5623C12.559 14.8693 12.5976 14.9853 12.7499 15.1376C12.9505 15.3382 13.2067 15.4059 13.695 15.389C14.2461 15.3696 14.6377 15.2488 15.4184 14.8645C16.1145 14.5212 16.61 14.2312 17.6832 13.5399C18.5896 12.9525 18.9353 12.7592 19.3147 12.6262C19.5299 12.5513 19.9166 12.5223 20.0858 12.5682L20.1897 12.5948L20.1728 12.7568C20.1583 12.9163 20.1003 13.32 20.0761 13.4384C20.064 13.4988 20.0616 13.4988 19.8175 13.4916C19.2954 13.4746 18.9328 13.6124 17.8041 14.2578C16.3538 15.0868 15.2347 15.5461 14.2147 15.725C13.9004 15.7805 13.3832 15.7805 13.1753 15.7274C12.704 15.6017 12.4236 15.3358 12.3148 14.9104C12.2326 14.5938 12.3052 14.2699 12.5856 13.6898C12.8345 13.1749 12.8514 13.1072 12.7596 12.9912C12.7112 12.9284 12.7016 12.926 12.5372 12.9356C12.3148 12.9477 12.2302 12.984 11.0966 13.5351C10.1129 14.0136 9.78171 14.1563 9.33213 14.2916C8.74718 14.4681 8.30971 14.5357 7.73684 14.5333C7.01655 14.5309 6.36876 14.3907 5.65814 14.0862C5.19407 13.888 4.47376 13.4819 4.42784 13.3925C4.40851 13.3562 4.34807 12.9308 4.31667 12.5924C4.30215 12.4425 4.30215 12.4377 4.34567 12.474C4.36984 12.4957 4.48101 12.5876 4.59462 12.6794ZM12.5082 13.1628C12.5662 13.1846 12.5541 13.2909 12.484 13.4142C12.3535 13.639 12.1577 14.0451 12.09 14.2312C11.8121 14.9853 11.9233 15.6259 12.3946 15.9763C12.8925 16.3437 13.7772 16.4332 14.8915 16.2277C15.5392 16.1069 16.0372 15.9618 17.2675 15.5316C18.1328 15.227 18.5703 15.0917 18.9159 15.0216C19.1407 14.9757 19.5444 14.9636 19.583 15.0023C19.612 15.0313 19.4429 15.4325 19.264 15.754C19.1794 15.9087 19.1576 15.9304 19.1141 15.9183C18.9764 15.8772 18.7274 15.8555 18.5533 15.8676C18.1183 15.9014 17.6856 15.986 16.2813 16.3147C15.5271 16.4912 14.86 16.6193 14.4805 16.6628C13.8231 16.7401 13.2309 16.699 12.7837 16.5468C12.4816 16.4453 12.31 16.3413 12.1118 16.1455C11.6646 15.7008 11.5994 14.9926 11.9402 14.2384C12.0925 13.9025 12.1263 13.7768 12.09 13.7067C12.0224 13.581 11.8097 13.6922 11.3746 14.0789C11.0338 14.3835 10.5359 14.792 10.2845 14.9757C9.92673 15.2367 9.38047 15.5775 9.09767 15.7129C8.64084 15.9352 8.03414 16.102 7.42263 16.1721C6.86909 16.2374 5.94338 16.1963 5.52762 16.09C5.41401 16.061 5.40918 16.0561 5.29074 15.8434C5.22307 15.7225 5.12155 15.5243 5.06355 15.4011C4.94269 15.1424 4.92577 15.1545 5.2859 15.2271C6.64431 15.5074 7.6184 15.5437 8.47405 15.3431C9.32972 15.1449 10.2216 14.688 11.1788 13.9581C11.7444 13.5278 12.0876 13.303 12.3245 13.2064C12.4864 13.1387 12.4623 13.1459 12.5082 13.1628ZM11.7299 14.2771C11.522 14.7678 11.4737 14.9394 11.4374 15.2947C11.3963 15.696 11.4737 16.073 11.6574 16.3582C12.2181 17.226 13.7433 17.5136 16.3538 17.2453C17.1418 17.1631 17.5164 17.1462 17.7678 17.1825C17.9805 17.2139 18.1545 17.2719 18.1545 17.3081C18.1545 17.3396 17.7654 17.7432 17.6179 17.8665L17.5043 17.9608L17.207 17.9245C16.7889 17.8714 16.1121 17.8375 15.4595 17.8375C13.9488 17.8351 13.2599 17.7481 12.6025 17.4774C12.2496 17.3299 12.0079 17.1752 11.7734 16.9432C11.5438 16.7111 11.4374 16.5492 11.3286 16.2591L11.2537 16.061V15.505C11.2537 14.9902 11.2513 14.9491 11.2102 14.9418C11.1329 14.9273 11.0144 15.0482 10.7921 15.3624C10.2289 16.1673 9.83973 16.6169 9.36838 17.0108C8.68918 17.5789 7.97131 17.8858 7.2341 17.9269L6.95855 17.9414L6.63465 17.6176C6.45579 17.4411 6.31076 17.2864 6.31076 17.2791C6.31076 17.2719 6.40504 17.2574 6.52346 17.2477C7.40813 17.1776 8.34355 16.8948 9.08075 16.4719C9.67779 16.1286 9.98475 15.8627 10.6253 15.1424C11.3407 14.3376 11.7758 13.9145 11.829 13.9677C11.8411 13.9798 11.8024 14.1031 11.7299 14.2771ZM11.0555 15.4494C11.0217 15.6815 11.0362 16.2616 11.0821 16.4815C11.2247 17.1607 11.5849 17.6248 12.2858 18.0285C12.8853 18.3741 13.5476 18.5892 14.9156 18.8889C15.5731 19.0315 15.7858 19.0871 15.7858 19.1137C15.7858 19.1234 15.6843 19.1766 15.561 19.2322C13.5693 20.1337 11.3625 20.1942 9.34422 19.4038C9.02033 19.2757 8.26861 18.9083 8.26861 18.8792C8.26861 18.8696 8.38463 18.7826 8.52965 18.6883C9.16294 18.2702 9.64635 17.794 10.0452 17.1946C10.1322 17.0665 10.3884 16.5927 10.6156 16.1431C10.8428 15.6911 11.0386 15.3237 11.0507 15.3237C11.0652 15.3237 11.0676 15.3745 11.0555 15.4494Z" fill="white"/>
<path d="M7.34455 6.87413C7.04967 6.92004 6.95783 6.94423 6.98925 6.9684C6.99408 6.97323 7.08592 7.01673 7.18986 7.06748C7.32763 7.13515 7.43399 7.21251 7.57418 7.34545C7.7627 7.52675 7.81348 7.59441 8.35249 8.42831C8.54827 8.72805 8.79723 9.0036 9.00509 9.14379C9.3145 9.35406 9.88009 9.56194 10.7672 9.79155C11.0717 9.86891 11.3811 9.96074 11.456 9.9946C11.647 10.084 11.8935 10.333 11.8935 10.4418C11.8935 10.4563 11.8307 10.4659 11.7412 10.4659C11.5503 10.4659 11.3859 10.5143 11.2288 10.6134C11.1636 10.6569 11.0645 10.698 11.0137 10.7052C10.8759 10.727 10.8808 10.7681 11.0282 10.8188C11.0983 10.8406 11.195 10.8841 11.2409 10.9131C11.3642 10.9904 11.6397 11.0847 11.8694 11.1282C12.2513 11.2007 12.5969 11.1669 12.9377 11.0219C13.0344 10.9808 13.177 10.9397 13.252 10.9324C13.3704 10.9204 13.4091 10.9276 13.5202 10.9856L13.6508 11.0509L13.774 10.988C13.9722 10.8865 13.919 10.8333 13.4791 10.698C13.1649 10.5989 13.0562 10.5264 13.0997 10.4442C13.1142 10.42 13.1794 10.3572 13.2471 10.3088C13.3148 10.2581 13.5251 10.0429 13.716 9.8278C14.1414 9.34923 14.6007 8.90449 14.8617 8.71836C15.0865 8.55642 15.4902 8.34614 15.6956 8.28087C15.8116 8.24462 15.8914 8.23979 16.1549 8.24704C16.5247 8.26154 16.7229 8.30504 16.9815 8.43556L17.1604 8.525L17.2643 8.47425C17.4021 8.40658 17.668 8.14068 17.7501 7.98357C17.7864 7.9159 17.8372 7.77569 17.8638 7.67177C17.9121 7.48564 17.929 7.15451 17.8928 7.15451C17.8807 7.15451 17.7478 7.23667 17.5955 7.34062C16.938 7.78052 16.4087 7.94007 15.4708 7.97632C14.8907 7.99807 14.6684 8.03432 14.3058 8.16001C13.5927 8.40898 12.986 8.87305 12.5147 9.53053C12.4398 9.63203 12.3455 9.77705 12.3044 9.84716C12.215 10.0043 12.2488 10.0091 11.7533 9.76497C10.9775 9.37823 10.4868 8.9601 9.61904 7.95215C9.38458 7.67902 9.11386 7.37928 9.01478 7.28503C8.80932 7.08682 8.52652 6.89588 8.36941 6.84996C8.20747 6.79918 7.7337 6.81129 7.34455 6.87413Z" fill="white"/>
</svg>
