<svg width="25" height="24" viewBox="0 0 25 24" fill="none" xmlns="http://www.w3.org/2000/svg">
<rect x="0.256836" width="24" height="24" rx="12" fill="#00569F"/>
<path fill-rule="evenodd" clip-rule="evenodd" d="M12.2775 11.3098L11.4275 12.7673H13.141L12.2775 11.3098ZM10.5144 12.6025C9.88105 12.6486 9.02138 12.9252 8.1488 13.3994C6.62492 14.2275 5.63894 15.345 5.94581 15.8942C6.25268 16.444 7.73742 16.2185 9.26053 15.3903C10.2714 14.8412 11.0461 14.1637 11.3636 13.6101H9.92697L10.5144 12.6025ZM8.00671 12.4919C9.09053 11.9606 10.1685 11.7253 10.9831 11.798L10.6273 12.4088L11.0304 11.7164C10.5844 11.0226 10.2872 9.96141 10.2542 8.75933C8.91675 9.46211 8.00671 10.8512 8.00671 12.4496V12.4919ZM14.5558 15.9499C13.4132 15.262 12.5874 14.3879 12.2767 13.6102H12.2376C11.9255 14.3908 11.0928 15.2694 9.94276 15.9588C10.6272 16.3972 11.426 16.63 12.242 16.6288C13.0959 16.6288 13.8909 16.3788 14.5558 15.9499ZM14.2737 8.78225C14.2377 9.96283 13.9473 11.0062 13.511 11.6956L13.0251 10.8756C13.2764 10.3057 13.4365 9.45081 13.4365 8.49586C13.4365 6.77944 12.9206 5.38815 12.2843 5.38815C11.6486 5.38815 11.1326 6.77944 11.1326 8.49586C11.1326 9.43819 11.2883 10.2827 11.5344 10.8526L11.2403 11.3564L12.2669 9.59625L14.6461 13.6101H13.1507C13.4674 14.1636 14.2421 14.8412 15.253 15.3903C16.7769 16.2185 18.261 16.444 18.5678 15.8949C18.8747 15.345 17.8886 14.2276 16.3647 13.3995C15.5164 12.9386 14.6792 12.664 14.051 12.6069L13.5697 11.7952C14.3722 11.7335 15.4208 11.965 16.4776 12.4778L16.4783 12.4496C16.4783 10.8683 15.587 9.49238 14.2737 8.78225ZM12.2638 4.5C13.2491 4.5 14.0698 5.91729 14.2436 7.7888C16.0917 8.55081 17.3906 10.3511 17.3906 12.4496C17.3906 12.627 17.3808 12.8028 17.3628 12.9757C19.0048 14.0361 19.9148 15.4705 19.429 16.3401C18.9439 17.2099 17.2282 17.2166 15.4418 16.4136C14.5397 17.1186 13.4222 17.5015 12.2714 17.5C11.0695 17.5 9.96444 17.0904 9.09042 16.4055C7.29814 17.2166 5.57179 17.2121 5.08447 16.3394C4.59637 15.4653 5.5192 14.0206 7.1785 12.9579C7.16162 12.789 7.15309 12.6193 7.15293 12.4496C7.15293 10.3571 8.44433 8.56123 10.2842 7.79549C10.4572 5.92025 11.2777 4.5 12.2638 4.5Z" fill="white"/>
</svg>
