<svg width="25" height="24" viewBox="0 0 25 24" fill="none" xmlns="http://www.w3.org/2000/svg">
<rect x="0.256836" width="24" height="24" rx="12" fill="#FF6200"/>
<path fill-rule="evenodd" clip-rule="evenodd" d="M12.3508 9.41871C15.3195 8.28418 18.2806 7.1194 21.2568 6C20.4151 6.93788 19.4456 7.73961 18.476 8.53378C16.1838 10.349 13.6961 11.8995 11.0882 13.208C11.013 13.2383 10.9378 13.2988 10.8552 13.2534C9.26936 12.671 7.57082 12.2702 5.87228 12.5046C5.45892 12.55 5.04556 12.6181 4.6322 12.671C5.58669 12.6408 6.54869 12.6256 7.48815 12.792C8.44264 12.9282 9.36707 13.2307 10.2539 13.6165C9.1416 14.1535 7.9917 14.6224 6.79671 14.9401C8.21717 14.8115 9.6226 14.4636 10.9604 13.9417C12.2531 14.5997 13.4706 15.409 14.613 16.3091C15.3044 16.8688 15.9959 17.436 16.6122 18.0789C15.109 17.6932 13.636 17.2243 12.1403 16.8083C10.2163 16.2561 8.29985 15.6964 6.38335 15.1367C6.13534 15.0838 5.95496 14.9023 5.75955 14.7661C4.92531 14.1535 4.08356 13.5484 3.25684 12.9358C6.28565 11.7634 9.31446 10.5911 12.3508 9.41871Z" fill="#FEFFFE"/>
</svg>
