<svg width="24" height="24" viewBox="0 0 24 24" fill="none" xmlns="http://www.w3.org/2000/svg">
<rect width="24" height="24" rx="12" fill="#C20831"/>
<path d="M10.0418 16.3765L10.0412 16.3783L12.7718 14.4391L12.6603 14.1037L10.6945 15.4996L11.0258 14.5036L10.7334 14.2961L10.1543 16.0382C9.45905 15.5028 9.01098 14.6738 9.01098 13.7436C9.01098 13.5306 9.03509 13.3224 9.07999 13.122L8.77897 12.9086C8.70491 13.1811 8.66742 13.4617 8.66743 13.7436C8.66743 14.8246 9.20995 15.7837 10.0418 16.3765ZM11.854 14.4689L9.88776 13.073H10.9595L11.071 12.7372L9.19458 12.7376C9.58237 11.7082 10.5462 10.9495 11.7023 10.8373L11.8174 10.492C10.4186 10.5663 9.24783 11.487 8.83118 12.7376L11.5618 14.6761L11.854 14.4689ZM10.0318 10.1503H10.0515C10.0375 10.0037 9.98601 9.91693 9.89146 9.88223C9.55218 9.75726 9.36934 9.48395 9.36934 9.17798C9.36934 8.82905 9.59736 8.61242 9.88377 8.61242C10.2903 8.61242 10.4377 9.07518 10.9022 9.07518C11.069 9.07518 11.2052 8.97963 11.2052 8.8978V8.84956H11.1184C10.5354 8.84956 10.4457 8.27658 9.88367 8.27658C9.40447 8.27658 9.02541 8.64703 9.02541 9.17789C9.02541 9.71301 9.44842 10.1503 10.0318 10.1503ZM4.65197 13.8895H6.74414V13.8715C6.53378 13.8094 6.36632 13.7089 6.19184 13.5538H4.65207C3.8687 13.5538 3.63793 13.4824 3.24985 13.0729H8.56357C8.58648 12.9597 8.61531 12.8478 8.64996 12.7375H2.5L2.73846 13.0134C3.36102 13.7347 3.59445 13.8895 4.65197 13.8895ZM11.0849 8.65918C11.3823 8.65918 11.5658 8.41732 11.5658 8.19345C11.5658 7.96597 11.459 7.87338 11.3484 7.87338C11.302 7.87345 11.2576 7.89143 11.2246 7.9234C11.1917 7.95537 11.1731 7.99874 11.1727 8.04409C11.1727 8.14567 11.2661 8.21405 11.3365 8.21405C11.2463 8.3482 11.1101 8.39403 10.9343 8.38132C10.9553 8.35256 10.9666 8.31813 10.9667 8.2828C10.9667 8.18557 10.8843 8.11255 10.7925 8.11255C10.7055 8.11255 10.6188 8.19243 10.6188 8.29393C10.6188 8.48569 10.8023 8.65918 11.0849 8.65918ZM9.36991 16.0032H6.84989C6.15633 16.0032 5.89584 15.9466 5.57564 15.6494H5.10099C5.60982 16.211 5.8911 16.339 6.84989 16.339H9.71755C9.59398 16.2349 9.47783 16.1228 9.36991 16.0032ZM8.21024 15.5224V15.5044C7.99988 15.4422 7.83214 15.3417 7.65794 15.1866H6.11779C5.42385 15.1866 5.16374 15.1303 4.84316 14.8328H4.36899C4.87705 15.3944 5.15871 15.5224 6.11779 15.5224H8.21024ZM7.47776 14.7058V14.6878C7.26749 14.6259 7.09975 14.5251 6.92555 14.3703H5.3854C4.69146 14.3703 4.43098 14.314 4.11078 14.0166H3.6366C4.14495 14.5782 4.42623 14.7059 5.3854 14.7059L7.47776 14.7058ZM12.7015 9.14393C12.5303 9.14393 12.3572 9.34803 12.2929 9.64584C12.399 9.65326 12.5046 9.66393 12.6077 9.67961C12.676 9.42003 12.7942 9.30026 12.8937 9.28291C12.8582 9.20405 12.7919 9.14393 12.7015 9.14393ZM12 10.487L10.9567 13.6244L11.2487 13.8319L11.9996 11.5733L12.3311 12.5693H12.6921L12.113 10.8268C13.2852 10.8696 14.2865 11.5736 14.7356 12.5693H15.107C14.6238 11.3523 13.4137 10.487 12 10.487ZM13.8615 10.6563V10.312C13.3518 10.0262 12.6713 9.81543 12 9.81543C11.328 9.81543 10.6479 10.0262 10.1379 10.312V10.6562C10.6844 10.3411 11.3207 10.1513 11.9999 10.1513C12.679 10.1513 13.315 10.3411 13.8615 10.6563ZM10.306 10.0013C10.3941 9.96104 10.4837 9.92394 10.5746 9.89002C10.53 9.75949 10.4459 9.61216 10.2886 9.61216C10.2102 9.61216 10.149 9.67367 10.1224 9.74539C10.1951 9.77062 10.2553 9.83204 10.306 10.0013ZM10.4939 16.2649L10.1934 16.4777C10.7311 16.8191 11.3587 17.0006 12 17C12.7306 17 13.4068 16.7683 13.9567 16.3772L13.9586 16.3781L12.9156 13.2408H12.5543L13.3055 15.4991L12.4384 14.8841L12.1464 15.0913L13.6625 16.1677C13.1715 16.4917 12.5925 16.6646 12 16.6642C11.4509 16.6642 10.9366 16.5182 10.4939 16.2649ZM11.3926 9.67924C11.4971 9.66397 11.6023 9.65283 11.7078 9.64584C11.6435 9.34803 11.4706 9.14374 11.2996 9.14374C11.2091 9.14374 11.1424 9.20405 11.1068 9.28291C11.2064 9.30026 11.3249 9.42003 11.3926 9.67924ZM10.7707 9.36798C10.6924 9.36798 10.6166 9.4217 10.5862 9.50083C10.6609 9.5116 10.7604 9.57051 10.8336 9.80328C10.93 9.77499 11.0274 9.7502 11.1256 9.72897C11.0554 9.49852 10.9282 9.36798 10.7707 9.36798ZM18.8985 15.6493H18.4237C18.1038 15.9464 17.8433 16.003 17.1497 16.003H14.63C14.522 16.1226 14.4057 16.2348 14.2821 16.3389H17.1497C18.1089 16.3389 18.3902 16.2109 18.8985 15.6493ZM11.7938 12.7374L11.6823 13.0728H14.112L13.2452 13.6885L13.3567 14.024L14.8751 12.9462C14.9488 13.1995 14.9886 13.4669 14.9886 13.7434C14.9886 14.6085 14.6015 15.3867 13.9881 15.9219L14.1029 16.2672C14.8523 15.6695 15.3323 14.7603 15.3323 13.7434C15.3323 13.3923 15.2747 13.0545 15.1688 12.7374H11.7938ZM20.7499 13.0728C20.3617 13.4823 20.1313 13.5536 19.3479 13.5536H17.8078C17.6337 13.7087 17.4658 13.8092 17.2556 13.8715V13.8894H19.3479C20.4053 13.8894 20.6386 13.7346 21.2615 13.0133L21.5 12.7374H15.3497C15.3841 12.8467 15.413 12.9593 15.4364 13.0728H20.7499ZM11.6609 8.02117L12.0004 7.77996L12.3397 8.02145L12.2104 7.63133L12.55 7.39012H12.1304L12.0003 7L11.8708 7.39012H11.4509L11.7907 7.63133L11.6609 8.02117ZM19.6306 14.8327H19.1564C18.8363 15.1302 18.5757 15.1864 17.8818 15.1864H16.3415C16.1674 15.3417 15.9999 15.4421 15.7893 15.5043V15.5223H17.8817C18.8408 15.5223 19.1226 15.3943 19.6306 14.8327ZM20.3629 14.0165H19.8887C19.5683 14.3139 19.3081 14.3702 18.6141 14.3702H17.074C16.8998 14.525 16.732 14.6258 16.5217 14.6877V14.7057H18.6141C19.5733 14.7057 19.8546 14.5781 20.3629 14.0165ZM13.8781 9.7453C13.8519 9.67358 13.7903 9.61207 13.7116 9.61207C13.5545 9.61207 13.4705 9.75968 13.4263 9.89095C13.5174 9.92463 13.6068 9.96165 13.6946 10.0015C13.7452 9.83204 13.8057 9.77053 13.8781 9.7453ZM11.7843 9.11359C11.879 9.22028 11.935 9.30285 11.9957 9.43534C11.9976 9.43719 11.9985 9.43997 12.0004 9.44183C12.0023 9.43997 12.0033 9.43719 12.0052 9.43534C12.0658 9.30285 12.1217 9.22038 12.2165 9.11359C12.1806 9.021 12.0725 8.8528 12.0004 8.78443C11.9285 8.8528 11.8201 9.021 11.7843 9.11359ZM12.7958 8.84956V8.89771C12.7958 8.97953 12.9321 9.07509 13.0989 9.07509C13.5634 9.07509 13.7108 8.61224 14.1173 8.61224C14.4033 8.61224 14.632 8.82896 14.632 9.17779C14.632 9.48386 14.4485 9.75708 14.1096 9.88214C14.0148 9.91684 13.9636 10.0036 13.9492 10.1503H13.9693C14.5523 10.1503 14.9756 9.71292 14.9756 9.17779C14.9756 8.64694 14.5966 8.27649 14.1174 8.27649C13.5554 8.27649 13.4657 8.84956 12.8826 8.84956H12.7958ZM12.4348 8.19327C12.4348 8.41713 12.6186 8.659 12.9157 8.659C13.1986 8.659 13.3822 8.48551 13.3822 8.29374C13.3822 8.19234 13.2955 8.11246 13.2084 8.11246C13.1623 8.11258 13.118 8.13055 13.0854 8.16243C13.0528 8.19431 13.0344 8.23751 13.0342 8.28261C13.0342 8.3212 13.0469 8.35228 13.0667 8.38114C12.8906 8.39394 12.7544 8.34811 12.6646 8.21396C12.7342 8.21396 12.8283 8.14558 12.8283 8.04409C12.828 7.99864 12.8093 7.95516 12.7763 7.92314C12.7433 7.89112 12.6986 7.87317 12.6521 7.8732C12.542 7.8732 12.4348 7.96578 12.4348 8.19327ZM12.0004 8.06468C11.9276 8.06473 11.8577 8.09302 11.8062 8.14333C11.7547 8.19365 11.7256 8.26189 11.7255 8.33308C11.7255 8.40434 11.7545 8.47268 11.806 8.52306C11.8576 8.57345 11.9275 8.60176 12.0004 8.60176C12.0733 8.60176 12.1433 8.57345 12.1948 8.52306C12.2464 8.47268 12.2753 8.40434 12.2753 8.33308C12.2753 8.26186 12.2463 8.19358 12.1948 8.14325C12.1432 8.09292 12.0733 8.06466 12.0004 8.06468ZM13.4147 9.50083C13.3845 9.4216 13.3085 9.36798 13.2305 9.36798C13.0728 9.36798 12.9458 9.49852 12.8752 9.72925C12.9735 9.75035 13.0709 9.77524 13.1672 9.80384C13.2406 9.57051 13.3404 9.5116 13.4147 9.50083Z" fill="white"/>
</svg>
