<svg width="25" height="24" viewBox="0 0 25 24" fill="none" xmlns="http://www.w3.org/2000/svg">
<rect x="0.256836" width="24" height="24" rx="12" fill="#002052"/>
<path d="M21.3699 5.5H16.1537L3.14355 18.5H16.1537L21.3699 5.5Z" fill="#0093D0"/>
<path d="M15.2705 10.5024C15.0675 10.4009 14.9356 10.1979 14.9356 9.96451C14.9356 9.63977 15.1994 9.36576 15.5343 9.36576C15.8591 9.36576 16.1331 9.62962 16.1331 9.96451C16.1331 10.1979 15.991 10.411 15.788 10.5024V10.6749C15.9707 10.6952 16.1939 10.7662 16.336 10.8373C16.3969 10.8271 16.4781 10.8271 16.5593 10.8271C17.3103 10.8271 17.838 11.3244 17.838 12.0043C17.838 12.4306 17.4625 12.8162 17.0363 12.8162C16.61 12.8162 16.2244 12.4001 16.3056 11.9739C16.3056 11.9739 16.265 12.116 16.265 12.2986V14.4501C16.2447 14.6936 15.9199 16.0434 14.3977 16.0434C12.8754 16.0434 12.5507 14.6936 12.5304 14.4501V12.2986C12.5304 12.1261 12.4797 11.9739 12.4797 11.9739C12.5608 12.3798 12.1651 12.8162 11.749 12.8162C11.3228 12.8162 10.9473 12.4306 10.9473 12.0043C10.9473 11.3244 11.475 10.8271 12.226 10.8271C12.3071 10.8271 12.3883 10.8271 12.4492 10.8373C12.5811 10.7662 12.8146 10.685 12.9972 10.6749V10.5024C12.7943 10.4009 12.6623 10.1979 12.6623 9.96451C12.6623 9.63977 12.9262 9.36576 13.2611 9.36576C13.596 9.36576 13.8598 9.62962 13.8598 9.96451C13.8598 10.1979 13.7178 10.411 13.5148 10.5024V10.7256C13.5655 10.7459 13.6163 10.7561 13.667 10.7865C13.7583 10.5836 13.941 10.4313 14.1541 10.3603V10.1776C13.9512 10.0863 13.8091 9.87318 13.8091 9.63977C13.8091 9.31502 14.0729 9.04102 14.4078 9.04102C14.7326 9.04102 15.0066 9.30487 15.0066 9.63977C15.0066 9.87318 14.8645 10.0863 14.6717 10.1776V10.3603C14.8848 10.4313 15.0675 10.5836 15.1588 10.7865L15.311 10.7256L15.2705 10.5024Z" fill="white"/>
<path d="M17.5842 12.0144C17.5842 11.4563 17.2087 11.0098 16.4272 11.0098C15.9097 11.0098 15.3008 11.4461 15.3008 12.5523V14.1963C15.524 14.0441 15.8386 13.9122 16.001 13.9122V12.3798C16.001 11.7912 16.4272 11.6187 16.6201 11.6187C16.5084 11.7201 16.4374 11.8419 16.4374 12.0144C16.4374 12.329 16.6911 12.5828 17.0057 12.5828C17.3304 12.5828 17.574 12.3493 17.5842 12.0144Z" fill="#ED1B2F"/>
<path d="M11.1611 12.0144C11.1611 11.4563 11.5366 11.0098 12.318 11.0098C12.8356 11.0098 13.4547 11.4461 13.4547 12.5523V14.1963C13.2314 14.0441 12.9168 13.9122 12.7544 13.9122V12.3798C12.7544 11.7912 12.3282 11.6187 12.1354 11.6187C12.247 11.7201 12.318 11.8419 12.318 12.0144C12.318 12.329 12.0542 12.5828 11.7497 12.5828C11.4148 12.5828 11.1713 12.3493 11.1611 12.0144Z" fill="#ED1B2F"/>
<path d="M14.377 15.8117C15.676 15.8117 15.9703 14.7258 16.0109 14.4417V14.0764C15.605 14.1778 15.2498 14.391 15.0062 14.7157C14.9251 14.3402 14.6815 14.0256 14.377 13.8125C14.0726 14.0155 13.8392 14.3402 13.7478 14.7157C13.5043 14.391 13.1491 14.1778 12.7432 14.0764V14.4417C12.7736 14.7258 13.0679 15.8117 14.377 15.8117Z" fill="#ED1B2F"/>
<path d="M14.4696 10.0564V10.5131C14.6929 10.5435 14.8857 10.6957 14.9567 10.8784C14.6929 11.0509 14.4797 11.3148 14.3783 11.6395C14.2768 11.3148 14.0637 11.0509 13.7998 10.8784C13.881 10.6957 14.0637 10.5435 14.2869 10.5131V10.0564C14.1043 10.0158 13.9622 9.84327 13.9622 9.65046C13.9622 9.41704 14.155 9.23438 14.3783 9.23438C14.6117 9.23438 14.7943 9.41704 14.7943 9.65046C14.7943 9.84327 14.6523 10.0158 14.4696 10.0564Z" fill="#ED1B2F"/>
<path d="M13.3224 10.381V10.858C13.8907 10.9696 14.2966 11.5683 14.2966 12.1265V13.669C14.0328 13.8213 13.7689 14.1359 13.6877 14.3896C13.6674 14.3693 13.6471 14.3388 13.6167 14.3185V12.3295C13.6167 11.7307 13.2919 11.1218 12.7236 10.929C12.7236 10.929 12.9063 10.8478 13.1397 10.8478V10.3708C12.957 10.3302 12.815 10.1679 12.815 9.96491C12.815 9.7315 12.9976 9.54883 13.231 9.54883C13.4645 9.54883 13.6471 9.7315 13.6471 9.96491C13.6471 10.1679 13.5051 10.3302 13.3224 10.381Z" fill="#ED1B2F"/>
<path d="M15.6159 10.381V10.8478C15.8493 10.8478 16.032 10.929 16.032 10.929C15.4535 11.132 15.1389 11.7409 15.1389 12.3295V14.3185L15.0679 14.3896C14.9867 14.1257 14.7228 13.8111 14.459 13.669V12.1265C14.459 11.5683 14.8649 10.9696 15.4332 10.858V10.3708C15.2506 10.3302 15.1085 10.1679 15.1085 9.96491C15.1085 9.7315 15.2911 9.54883 15.5246 9.54883C15.758 9.54883 15.9406 9.7315 15.9406 9.96491C15.9508 10.1679 15.8087 10.3404 15.6159 10.381Z" fill="#ED1B2F"/>
</svg>
