<svg width="25" height="24" viewBox="0 0 25 24" fill="none" xmlns="http://www.w3.org/2000/svg">
<rect x="0.756836" y="0.5" width="23" height="23" rx="11.5" fill="white"/>
<rect x="0.756836" y="0.5" width="23" height="23" rx="11.5" stroke="#F1D212"/>
<path d="M19.4847 5.4082H19.8416C20.0268 5.56708 20.1761 5.76507 20.2567 5.99739V7.28833C20.1138 7.63722 20.0651 8.01484 19.9406 8.37011C19.7729 8.89463 19.5215 9.40079 19.1414 9.80316C18.6968 10.2734 18.1611 10.6454 17.623 10.9999C16.2985 11.8517 14.9253 12.6238 13.5441 13.3798C10.7539 14.8815 7.91573 16.2994 4.99614 17.5337C4.75823 17.5959 4.52271 17.6622 4.2832 17.7157C4.30556 17.4355 4.60175 17.3205 4.80134 17.1784C9.633 14.2939 13.9609 10.6438 17.9639 6.70793C18.4509 6.25366 18.8995 5.73952 19.4847 5.4082Z" fill="#548F46"/>
<path d="M17.9806 11.3585C18.1562 11.2747 18.4045 11.3577 18.4444 11.5621C18.5075 11.8663 18.3846 12.1689 18.2712 12.4451C17.8185 13.4342 17.1072 14.3268 16.1715 14.8952C15.6725 15.1827 15.1225 15.3647 14.5836 15.5603C11.9434 16.4592 9.2282 17.1155 6.5098 17.7294C6.53694 17.747 6.59283 17.7821 6.62077 17.8005C6.57367 17.8116 6.48106 17.834 6.43395 17.8452C6.39643 17.6935 6.04994 17.751 6.22079 17.8939C5.90784 17.945 5.57093 17.9569 5.30268 18.1454C5.26037 18.0887 5.21965 18.032 5.17974 17.9745C4.87077 17.9897 4.5642 18.02 4.25684 18.0472C4.26402 17.9362 4.2728 17.826 4.28398 17.7158C4.52348 17.6623 4.759 17.5961 4.99691 17.5338C5.19171 17.4979 5.38571 17.45 5.57333 17.3829C6.57447 17.0324 7.55006 16.6133 8.51767 16.1774C11.2552 14.9288 13.9425 13.5676 16.5707 12.101C17.0385 11.8503 17.484 11.5501 17.9806 11.3585Z" fill="#F1D212"/>
<path d="M15.7085 15.5558C15.9257 15.5175 16.2099 15.3889 16.3887 15.5829C16.6035 15.8656 16.3799 16.2144 16.2362 16.4739C15.7189 17.2475 15.0467 17.9652 14.1685 18.3213C13.7517 18.5233 13.2815 18.4945 12.8336 18.5424C10.4953 18.6782 8.15526 18.5113 5.82646 18.3029C5.64762 18.271 5.44085 18.2814 5.30273 18.1449C5.57098 17.9565 5.90789 17.9445 6.22084 17.8934C6.27433 17.8814 6.38051 17.8567 6.434 17.8447C6.48111 17.8335 6.57372 17.8112 6.62082 17.8C8.23669 17.5301 9.8398 17.1844 11.4269 16.7757C12.868 16.4204 14.2763 15.9454 15.7085 15.5558Z" fill="#C12237"/>
</svg>
