<svg width="25" height="24" viewBox="0 0 25 24" fill="none" xmlns="http://www.w3.org/2000/svg">
<rect x="0.756836" y="0.5" width="23" height="23" rx="11.5" fill="white"/>
<rect x="0.756836" y="0.5" width="23" height="23" rx="11.5" stroke="#BE1E2D"/>
<path d="M11.1185 9.89705C11.1258 9.89705 11.1331 9.89705 11.1404 9.89705C11.1404 9.88975 11.1404 9.88975 11.1404 9.88249L13.2939 8.66023C15.1564 7.60532 15.8039 5.23357 14.7489 3.37109L9.15422 6.54312L9.08146 6.58678C8.37576 7.15426 8.23025 9.89705 11.1185 9.89705Z" fill="url(#paint0_linear_24635_1270)"/>
<path d="M8.3708 20.6274L14.4239 17.1352L14.5475 17.0625C14.8895 16.3131 14.8095 15.3528 14.322 14.6835C13.9073 14.1087 13.107 13.5849 12.3722 13.8395L9.78949 15.331C7.94156 16.4004 7.30134 18.7722 8.3708 20.6274Z" fill="url(#paint1_linear_24635_1270)"/>
<path d="M16.1029 12.7778C15.6373 11.1335 14.2331 10.0277 12.5307 9.95495L11.1484 9.89674H11.1412C11.1339 9.89674 11.1266 9.89674 11.1193 9.89674C8.23103 9.89674 8.37654 7.15396 9.08952 6.59375C7.63446 7.50316 6.95058 9.22742 7.3871 10.8862C7.82362 12.5449 9.26412 13.709 10.9811 13.7818L12.3634 13.8399H12.3707V13.8472C13.0982 13.5926 13.9058 14.1164 14.3205 14.6912C14.8079 15.3605 14.8879 16.3208 14.546 17.0702C15.9574 16.1026 16.5685 14.422 16.1029 12.7778Z" fill="url(#paint2_linear_24635_1270)"/>
<defs>
<linearGradient id="paint0_linear_24635_1270" x1="8.65282" y1="6.63246" x2="15.2559" y2="6.63246" gradientUnits="userSpaceOnUse">
<stop stop-color="#D92128"/>
<stop offset="0.0166773" stop-color="#D11F26"/>
<stop offset="0.0797342" stop-color="#BF1C21"/>
<stop offset="0.1442" stop-color="#B2181E"/>
<stop offset="0.2104" stop-color="#AA161B"/>
<stop offset="0.2809" stop-color="#A7161A"/>
<stop offset="0.6685" stop-color="#ED2024"/>
<stop offset="0.8876" stop-color="#EE3532"/>
<stop offset="1" stop-color="#AA251F"/>
</linearGradient>
<linearGradient id="paint1_linear_24635_1270" x1="15.8276" y1="14.5099" x2="9.36023" y2="17.7436" gradientUnits="userSpaceOnUse">
<stop offset="0.0256403" stop-color="#931E1B"/>
<stop offset="0.7785" stop-color="#BE2526"/>
</linearGradient>
<linearGradient id="paint2_linear_24635_1270" x1="7.28158" y1="8.58697" x2="16.2674" y2="15.0979" gradientUnits="userSpaceOnUse">
<stop stop-color="#A71714"/>
<stop offset="0.7834" stop-color="#D32027"/>
</linearGradient>
</defs>
</svg>
