<svg width="24" height="24" viewBox="0 0 24 24" fill="none" xmlns="http://www.w3.org/2000/svg">
<rect width="24" height="24" rx="12" fill="#3270AE"/>
<path fill-rule="evenodd" clip-rule="evenodd" d="M6.98289 10.8547V12.6458C6.98289 12.8107 6.91132 13.0572 6.2523 13.0572C5.59329 13.0572 5.52155 12.8107 5.52155 12.6458V10.8547H5.1472V12.6662C5.1472 13.1097 5.51135 13.303 6.18724 13.303C6.53293 13.303 6.7877 13.2446 6.97884 13.1903V13.9999H7.34738L7.34545 10.8547H6.98289ZM3.58704 10C3.19248 10 2.60713 10.0829 2.60713 10.4893V10.8547H2.17969V11.0643H2.60713V13.246H2.96548V11.0643H3.52955L3.52973 10.8547H2.96548V10.5344C2.96548 10.2224 3.32629 10.1727 3.58704 10.1727C4.01853 10.1727 4.23323 10.2055 4.23323 10.6822L4.23306 13.246H4.59122V10.0577H4.23323C4.03365 10.0577 3.9373 10 3.58704 10ZM21.4262 11.0835C21.2096 11.0835 21.0338 11.2615 21.0338 11.4807C21.0338 11.7002 21.2096 11.8784 21.4262 11.8784C21.645 11.8784 21.8199 11.7002 21.8199 11.4807C21.8199 11.2615 21.645 11.0835 21.4262 11.0835Z" fill="#FF8200"/>
<path fill-rule="evenodd" clip-rule="evenodd" d="M18.5674 11.3952C18.8459 11.3633 19.0954 11.3476 19.2526 11.3471C19.1661 11.0104 18.7708 10.8789 18.1186 10.8789C17.5553 10.8789 17.0526 11.0752 17.0526 11.0752V11.5429C17.0526 11.5429 17.4009 11.2598 18.1283 11.2598C18.3666 11.2598 18.4981 11.3027 18.5673 11.3952H18.5674ZM9.87529 12.5703C9.85506 12.8294 9.57848 12.9696 9.30981 12.9696C8.72781 12.9696 8.64623 12.7142 8.64623 12.1308C8.64623 11.5482 8.76033 11.2933 9.28116 11.2933C9.61875 11.2933 9.85506 11.4327 9.87529 11.6916C9.89147 11.901 9.89991 12.008 9.89991 12.1308C9.89991 12.254 9.89147 12.3735 9.87529 12.5703ZM9.89991 11.0218C9.65954 10.9274 9.47667 10.878 9.17935 10.878C8.27188 10.878 7.99512 11.2234 7.99512 12.1308C7.99512 13.0346 8.40199 13.384 9.30981 13.384C9.86298 13.384 10.2651 13.1751 10.551 13.1751V10.1387H9.89992L9.89991 11.0218ZM20.4672 10.9336L19.8161 10.9338V11.3279H20.4672V10.9336ZM18.6433 12.5644C18.6433 12.9059 18.3268 12.9921 18.11 12.9921C17.7402 12.9921 17.5509 12.8798 17.5509 12.6381C17.5509 12.2299 18.0696 12.0199 18.6433 11.985V12.5644ZM20.6044 11.5611L20.4153 11.5615C17.7756 11.5615 16.9202 12.0563 16.9202 12.6221C16.9202 13.1476 17.3678 13.3781 18.0924 13.3781C18.56 13.3781 19.0331 13.1742 19.2807 13.1742V11.9001C19.5895 11.8607 19.8203 11.8543 19.8203 11.8543V13.3274H20.4709V12.2185C20.4709 11.8224 20.6044 11.5612 20.6044 11.5612V11.5611ZM15.2637 12.9696C14.9948 12.9696 14.7184 12.8294 14.6982 12.5703C14.682 12.3735 14.6737 12.254 14.6737 12.1309C14.6737 12.008 14.682 11.901 14.6982 11.6914C14.7184 11.4327 14.9549 11.2933 15.2925 11.2933C15.8131 11.2933 15.9272 11.5482 15.9272 12.1308C15.9272 12.7142 15.8458 12.9696 15.2637 12.9696ZM15.3939 10.878C15.0968 10.878 14.9137 10.9274 14.6737 11.0218V10.1387H14.0226V13.1751C14.3084 13.1751 14.7101 13.384 15.2637 13.384C16.1713 13.384 16.5783 13.0346 16.5783 12.1308C16.5783 11.2234 16.3014 10.878 15.3939 10.878ZM12.8347 12.5868C12.8347 12.7517 12.7814 12.9976 12.2931 12.9976C11.8049 12.9976 11.7523 12.7517 11.7523 12.5868V10.9357H11.1007V12.7472C11.1008 13.1907 11.5522 13.384 12.2284 13.384C12.8264 13.384 13.2126 13.1991 13.404 13.1785L13.4855 13.17V10.9357H12.8347L12.8347 12.5868Z" fill="white"/>
</svg>
