<svg width="25" height="24" viewBox="0 0 25 24" fill="none" xmlns="http://www.w3.org/2000/svg">
<rect x="0.256836" width="24" height="24" rx="12" fill="#0F477F"/>
<path d="M12.2566 18.7671C15.9941 18.7671 19.024 15.7373 19.024 11.9998C19.024 8.26227 15.9941 5.23242 12.2566 5.23242C8.51911 5.23242 5.48926 8.26227 5.48926 11.9998C5.48926 15.7373 8.51911 18.7671 12.2566 18.7671Z" fill="#FCDD53" stroke="#E42A2B"/>
<path d="M16.8163 13.5882C16.5893 13.8564 16.383 14.0008 16.0116 14.0627H11.9264C11.7201 13.9596 11.6995 13.8152 11.9264 13.712H14.2372C14.4436 13.712 14.6292 13.6501 14.7737 13.4644C15.4545 12.5566 16.2386 11.69 16.8369 10.6997C16.5687 10.9473 16.4036 11.0917 16.0116 11.1536H13.185C12.8961 11.1536 12.6692 11.2568 12.4835 11.5043C11.9264 12.2265 11.3487 12.928 10.7917 13.6501C9.32677 15.4038 8.31579 11.5456 10.2965 12.1646C10.0283 11.8138 9.73941 11.4837 9.47119 11.133C9.26487 10.9266 8.95539 10.906 8.74907 11.133C7.51114 12.701 7.4905 15.115 10.0695 15.3419H15.5577C15.9703 14.7436 16.4036 14.1659 16.8163 13.5882ZM15.9703 8.67773C15.7846 8.82216 15.6609 8.88406 15.372 8.88406H12.8755C12.6279 8.88406 12.3184 8.98722 12.1534 9.19354L10.5647 11.2155L11.0186 11.7932L11.5757 11.1123C11.7614 10.906 11.9677 10.8235 12.2565 10.8235H13.804C14.588 10.8235 15.599 9.13164 15.9703 8.67773Z" fill="#478C3E"/>
</svg>
