<svg width="25" height="24" viewBox="0 0 25 24" fill="none" xmlns="http://www.w3.org/2000/svg">
<rect x="0.256836" width="24" height="24" rx="12" fill="#2AABE8"/>
<path fill-rule="evenodd" clip-rule="evenodd" d="M20.2821 5H20.3738C19.9874 5.28157 19.5618 5.51076 19.1624 5.77923C17.3616 6.971 15.6722 8.34612 14.2578 9.97661C13.3672 11.0112 12.5814 12.1506 12.0707 13.421C11.5206 14.7437 11.3176 16.217 11.5534 17.6314C11.6254 18.0964 11.776 18.5482 11.8939 19C9.71334 16.9308 7.53279 14.8616 5.35225 12.7923C4.65815 12.1179 3.93785 11.4696 3.25684 10.782C8.80969 8.89616 14.3756 7.04958 19.9285 5.1768C20.0464 5.13096 20.1642 5.06548 20.2821 5Z" fill="white"/>
</svg>
