<svg width="24" height="24" viewBox="0 0 24 24" fill="none" xmlns="http://www.w3.org/2000/svg">
<rect width="24" height="24" rx="12" fill="#E31D2C"/>
<path fill-rule="evenodd" clip-rule="evenodd" d="M4.61035 15.1236C4.17983 15.5443 3.73481 15.9862 3.27484 16.4499C3.6058 15.9415 3.94674 15.4407 4.29536 14.9495C3.69896 14.5858 3.31198 14.1318 3.1827 13.5905C2.93704 12.5333 3.6433 10.731 7.91156 8.54622C6.64953 10.1562 5.99308 11.4108 6.29979 12.3294C7.30105 11.1138 8.32733 9.99763 9.33263 9.02244C8.3143 8.29907 7.17446 7.52111 5.90537 6.68358C7.29183 7.24214 8.6413 7.84202 9.92169 8.46493C12.6545 5.94357 15.1611 4.54634 16.489 5.13305C17.7787 5.70695 18.5464 8.18376 16.8064 12.3219C16.6571 8.5847 15.4601 6.87785 11.5551 9.29171C14.6474 10.9206 17.2005 12.6472 18.6843 14.169C19.3757 14.1403 20.1005 14.1053 20.8596 14.064C20.2724 14.2644 19.6836 14.4491 19.0961 14.6183C19.8294 15.4751 20.1856 16.2529 20.0613 16.8929C19.8156 18.1816 17.4716 19.1985 12.7121 18.967C15.6052 18.2387 17.1273 17.2614 16.1855 15.3351C11.2816 16.3408 6.82671 16.236 4.61035 15.1236ZM6.81348 13.0403C7.9007 13.9263 10.5735 14.321 15.4804 14.2597C14.5668 13.1175 12.9831 11.7051 10.5901 9.93352C9.5142 10.695 8.26378 11.7199 6.81348 13.0403Z" fill="white"/>
</svg>
