<svg width="24" height="24" viewBox="0 0 24 24" fill="none" xmlns="http://www.w3.org/2000/svg">
<rect width="24" height="24" rx="12" fill="#DF2D30"/>
<path fill-rule="evenodd" clip-rule="evenodd" d="M12.9667 12.7951H10.3773C9.87612 12.7951 9.62556 12.4221 10.0014 11.5106L10.962 9.39753C11.0229 9.26008 11.0765 9.13138 11.1265 9.01148C11.453 8.2275 11.6238 7.81756 12.6743 7.7816H15.3054L12.9667 12.7951ZM15.9736 15.5711L20.4004 6H12.1731C8.13556 6 7.35048 7.67035 7.18079 8.03131L7.17928 8.03442C7.17239 8.04921 7.16651 8.06168 7.16148 8.07164C6.82733 8.85889 5.9921 10.8477 5.28211 12.505C4.6556 13.9552 7.24496 14.4938 7.24496 14.4938L5.19857 16.0268C5.19857 16.0268 5.11503 16.3169 2.81803 16.3169L2.40039 17.4355H8.45613L8.83203 16.3169C7.99675 16.1926 8.45613 15.9025 8.45613 15.9025L9.75084 14.6595L12.2149 14.6181C12.2149 14.6181 12.0291 15.0434 11.8665 15.413C11.7512 15.6753 11.6475 15.9095 11.6302 15.9439C11.2961 16.4826 10.3773 16.3169 10.3773 16.3169L9.87612 17.4355H16.433L16.8925 16.234C15.3889 16.1926 15.9736 15.5711 15.9736 15.5711Z" fill="white"/>
</svg>
