<svg width="24" height="24" viewBox="0 0 24 24" fill="none" xmlns="http://www.w3.org/2000/svg">
<rect width="24" height="24" rx="12" fill="#003C6B"/>
<path fill-rule="evenodd" clip-rule="evenodd" d="M4.86001 15.4754C3.21403 13.1166 2.40039 11.9138 2.40039 11.8765L5.48661 11.8672C6.65563 11.8672 7.92752 12.4173 8.61023 13.4056L11.2195 17.1723C9.42387 17.1723 8.52606 17.1723 8.52606 17.1723C6.94554 17.3401 5.62689 16.5849 4.86001 15.4754Z" fill="white"/>
<path d="M12.2007 17.2192C13.6502 17.1726 15.0437 16.1656 16.2408 14.534C16.2408 14.534 18.0271 11.8954 21.5996 6.61826L17.9242 6.59961C16.0725 6.84202 15.0531 7.95153 13.9776 9.40602L10.3115 14.851C10.3115 14.851 10.8352 15.6435 11.8733 17.2285L12.2007 17.2192Z" fill="url(#paint0_linear_24635_763)"/>
<defs>
<linearGradient id="paint0_linear_24635_763" x1="15.9595" y1="6.59961" x2="15.9595" y2="17.1863" gradientUnits="userSpaceOnUse">
<stop stop-color="#D51218"/>
<stop offset="1" stop-color="#91120B"/>
</linearGradient>
</defs>
</svg>
