<svg width="24" height="24" viewBox="0 0 24 24" fill="none" xmlns="http://www.w3.org/2000/svg">
<rect width="24" height="24" rx="12" fill="#002059"/>
<path fill-rule="evenodd" clip-rule="evenodd" d="M9.05687 13.8108L11.1256 17.3176L11.9573 13.8108H9.05687ZM11.1043 17.4797L11.872 18.7973L8.33175 16.223L6.34834 13.8311L11.1043 17.4797ZM12.8957 17.3378L14.9645 13.8311H12.064L12.8957 17.3378ZM17.673 13.8311L15.6896 16.223L12.128 18.7973L12.8957 17.4797L17.673 13.8311ZM12 19L11.936 18.9595L3.34123 12.7365L3.31991 12.7162L3.02133 11.1554C3.02133 11.1554 3.02133 11.1554 3.02133 11.1351L3 10.3243C3 10.3041 3 10.3041 3.02133 10.2838L5.02607 8.58108C5.02607 8.58108 5.02607 8.58108 5.04739 8.58108L7.03081 7.85135C7.03081 7.85135 7.03081 7.85135 7.05213 7.85135L12 7L16.9479 7.85135C16.9479 7.85135 16.9479 7.85135 16.9692 7.85135L18.9526 8.58108C18.9526 8.58108 18.9526 8.58108 18.9739 8.58108L20.9787 10.2838C20.9787 10.2838 21 10.3041 21 10.3243L20.9787 11.1351C20.9787 11.1351 20.9787 11.1351 20.9787 11.1554L20.6801 12.7162V12.7365L20.6588 12.7568L12.064 18.9392L12 19C12.0213 19 12 19 12 19ZM15.0498 11.1149L18.2701 12.6554L19.1019 10.5473L16.1801 9.63514L15.0498 11.1149ZM20.3602 12.7365H18.3341L18.0355 13.4662L20.3602 12.7365ZM18.9313 8.64189L17.9502 8.62162L19.2085 10.4662L20.9147 11.0541L20.936 10.3243L18.9313 8.64189ZM16.9479 7.91216L12 7.06081L7.07346 7.91216L6.24171 8.58108L7.86256 9.53378L12.0213 9.75676L16.1588 9.53378L17.7796 8.58108L16.9479 7.91216ZM12 13.1216L14.8791 11.1351L12 9.83784L9.12085 11.1351L12 13.1216ZM5.75118 12.6554L8.97156 11.1149L7.81991 9.61486L4.91943 10.5473L5.75118 12.6554ZM5.6872 12.7568H3.66114L5.98578 13.4865L5.6872 12.7568ZM6.07109 8.62162L5.09005 8.64189L3.10664 10.3243L3.12796 11.0743L4.83412 10.4865L6.07109 8.62162Z" fill="white"/>
</svg>
