<?xml version="1.0" encoding="UTF-8"?>
<svg version="1.1" xmlns="http://www.w3.org/2000/svg" width="121" height="95">
<path d="M0 0 C8.9561648 6.13542784 16.42354123 13.88166491 19.125 24.6875 C29.52 24.1925 29.52 24.1925 40.125 23.6875 C39.125 28.6875 39.125 28.6875 37 30.8125 C32.93692661 33.46233047 29.08824745 35.6875 24.125 35.6875 C23.49899021 38.05697632 22.98228495 40.41743748 22.51171875 42.82421875 C19.52029022 58.01532787 13.4329458 70.47105041 0.8671875 80.01171875 C-12.38501926 88.11028955 -28.66610048 89.67489353 -43.73046875 87.00390625 C-57.69540821 82.98293802 -68.31451585 75.05586485 -75.875 62.6875 C-81.93739324 50.96443837 -83.18376923 36.9393265 -79.375 24.1875 C-73.95993187 10.63089587 -63.81811685 1.42609093 -50.61328125 -4.3046875 C-34.10428873 -10.38075037 -15.11126622 -9.05452389 0 0 Z " fill="#0AA9DA" transform="translate(80.875,7.3125)"/>
<path d="M0 0 C8.9561648 6.13542784 16.42354123 13.88166491 19.125 24.6875 C29.52 24.1925 29.52 24.1925 40.125 23.6875 C39.125 28.6875 39.125 28.6875 37 30.8125 C32.93692661 33.46233047 29.08824745 35.6875 24.125 35.6875 C23.795 37.0075 23.465 38.3275 23.125 39.6875 C22.465 39.3575 21.805 39.0275 21.125 38.6875 C21.62 37.6975 21.62 37.6975 22.125 36.6875 C20.64 35.6975 20.64 35.6975 19.125 34.6875 C19.92164062 34.51734375 20.71828125 34.3471875 21.5390625 34.171875 C27.51486659 32.80514608 32.38579204 31.65818775 37.125 27.6875 C37.62 26.6975 37.62 26.6975 38.125 25.6875 C36.84375244 25.71106567 36.84375244 25.71106567 35.53662109 25.73510742 C13.98039426 26.07793562 -6.28173338 25.21489321 -27.29370117 19.90527344 C-32.65134114 18.60477973 -36.54400918 18.26590245 -41.875 19.6875 C-46.41275291 22.62369306 -48.09390789 25.67185203 -50.25 30.5625 C-53.35799658 37.22469919 -56.5238368 41.4698597 -63.09765625 44.8203125 C-66.65539879 45.93116882 -70.00447565 45.90413506 -73.6875 45.8125 C-74.72680664 45.79896484 -74.72680664 45.79896484 -75.78710938 45.78515625 C-77.48322395 45.76176157 -79.17915871 45.72589641 -80.875 45.6875 C-81.61603434 30.61980182 -79.23308317 19.31574535 -68.875 7.6875 C-50.62696552 -10.04607911 -21.73287183 -13.02212563 0 0 Z " fill="#E61D27" transform="translate(80.875,7.3125)"/>
<path d="M0 0 C11.96784343 2.48167551 23.71958247 3.04748536 35.90234375 3.37890625 C37.39844687 3.4222034 38.89454076 3.46582081 40.390625 3.50976562 C44.01943236 3.61566807 47.6483451 3.71724805 51.27734375 3.81640625 C49.75034698 7.12189529 48.81553683 8.41661667 45.46484375 9.94140625 C44.75457031 10.27398437 44.04429688 10.6065625 43.3125 10.94921875 C41.70158244 11.6356366 40.05621801 12.24114564 38.40234375 12.81640625 C36.1143122 13.60321461 36.1143122 13.60321461 35.47265625 15.73828125 C33.29755994 19.51982124 29.50982527 19.93069162 25.5 21.05859375 C11.88788603 23.91280008 -3.13226395 21.99709957 -16.72265625 19.81640625 C-5.20063853 22.36859512 6.52752587 22.44903777 18.27734375 22.81640625 C16.44797462 27.02135424 14.53925721 28.06150071 10.27734375 29.81640625 C3.5633442 31.49888963 -3.46720797 31.10453224 -10.34765625 31.12890625 C-11.09965302 31.13218933 -11.85164978 31.13547241 -12.62643433 31.13885498 C-30.35027584 31.16377146 -47.45038554 28.80646254 -64.72265625 24.81640625 C-64.72265625 24.48640625 -64.72265625 24.15640625 -64.72265625 23.81640625 C-63.94921875 23.790625 -63.17578125 23.76484375 -62.37890625 23.73828125 C-54.84572926 23.32805874 -48.52716304 22.72935504 -43.078125 17.125 C-40.19762339 13.51525747 -38.13720253 9.72925526 -36.16015625 5.56640625 C-34.26760529 1.60482852 -32.57054518 -0.85460835 -28.72265625 -3.18359375 C-20.02601036 -6.08247571 -8.67767205 -1.84071831 0 0 Z " fill="#F9F9F9" transform="translate(67.72265625,29.18359375)"/>
<path d="M0 0 C3.70782406 2.47188271 3.99302457 4.10127712 5.4375 8.25 C7.18332546 13.0272133 8.90018371 16.98171963 12 21 C12.80824219 20.6390625 13.61648437 20.278125 14.44921875 19.90625 C15.51785156 19.4421875 16.58648437 18.978125 17.6875 18.5 C19.27111328 17.80390625 19.27111328 17.80390625 20.88671875 17.09375 C24 16 24 16 29 16 C29 11.71 29 7.42 29 3 C29.66 3 30.32 3 31 3 C31 7.29 31 11.58 31 16 C31.94875 16.0825 32.8975 16.165 33.875 16.25 C38.88977467 16.93991766 43.38454926 19.00337644 48 21 C48.24492188 20.33613281 48.48984375 19.67226562 48.7421875 18.98828125 C50.31309331 15.2561603 52.19789136 11.74550093 54.125 8.1875 C54.49753906 7.49462891 54.87007812 6.80175781 55.25390625 6.08789062 C56.16690377 4.39065164 57.08312716 2.69514862 58 1 C58.66 1 59.32 1 60 1 C58.33235668 6.73506605 56.19980991 11.79845595 53.18359375 16.95703125 C52.04226034 18.92705558 51.0181982 20.96360361 50 23 C52.64 25.31 55.28 27.62 58 30 C55.15739906 31.89506729 52.75907578 32.92179521 49.5625 34.0625 C48.61503906 34.40410156 47.66757813 34.74570313 46.69140625 35.09765625 C33.17110715 39.63058672 17.37546246 38.01480686 4.65625 31.8671875 C3.83640625 31.43792969 3.83640625 31.43792969 3 31 C4.39332574 27.63279613 5.9789286 26.0140476 9 24 C7.05364834 18.95076888 4.69163659 14.12424497 2.33984375 9.25390625 C1.04811696 6.11685547 0.40991143 3.35520093 0 0 Z " fill="#EDF9FD" transform="translate(21,58)"/>
<path d="M0 0 C14.58536738 1.26954921 14.58536738 1.26954921 21 4 C24.29362462 8.01634628 24.92996998 12.00652658 26 17 C27.30703839 19.47162027 28.74146074 21.76472608 30.27734375 24.09765625 C31 26 31 26 30.29296875 28.10546875 C28.57572102 30.62167767 26.43813927 32.20347633 24 34 C14.25884222 31.04813401 8.3188783 22.15646911 3.70703125 13.6015625 C1.55628478 9.05160788 0.62007648 5.02748285 0 0 Z " fill="#05AFE3" transform="translate(0,54)"/>
<path d="M0 0 C1.74744369 0.29007643 3.49482627 0.58052101 5.2421875 0.87109375 C6.34401367 1.05397949 7.44583984 1.23686523 8.58105469 1.42529297 C10.71324015 1.78370232 12.84433126 2.14876313 14.97363281 2.52392578 C34.35449305 5.9297265 53.36949397 6.79353172 73 7 C73 7.33 73 7.66 73 8 C65.41 8 57.82 8 50 8 C50 12.29 50 16.58 50 21 C47.7415625 21.6496875 47.7415625 21.6496875 45.4375 22.3125 C41.12570385 23.60051877 37.09060427 25.13255023 33 27 C29.28922029 21.95027916 26.93838119 17.78393862 25.375 11.6875 C24.37647505 8.49469417 24.37647505 8.49469417 22 6 C16.31902126 3.64080677 10.06155826 3.0205247 3.98364258 2.40380859 C2 2 2 2 0 0 Z " fill="#14A4D0" transform="translate(0,53)"/>
<path d="M0 0 C0.66 0 1.32 0 2 0 C0.33235668 5.73506605 -1.80019009 10.79845595 -4.81640625 15.95703125 C-5.95773966 17.92705558 -6.9818018 19.96360361 -8 22 C-5.36 24.31 -2.72 26.62 0 29 C-0.99 29.33 -1.98 29.66 -3 30 C-4.82421875 28.78515625 -4.82421875 28.78515625 -6.6875 27.0625 C-7.31011719 26.49660156 -7.93273437 25.93070313 -8.57421875 25.34765625 C-9.04472656 24.90292969 -9.51523438 24.45820312 -10 24 C-10.67095703 24.58007812 -10.67095703 24.58007812 -11.35546875 25.171875 C-14.8521026 28.18390075 -18.37407463 31.14321031 -22 34 C-22.66 33.34 -23.32 32.68 -24 32 C-23.28972656 31.37351562 -22.57945313 30.74703125 -21.84765625 30.1015625 C-20.92855469 29.28429687 -20.00945313 28.46703125 -19.0625 27.625 C-18.14597656 26.81289062 -17.22945312 26.00078125 -16.28515625 25.1640625 C-13.96398605 23.21290653 -13.96398605 23.21290653 -13 21 C-14.58298026 20.5196682 -16.16639978 20.04078388 -17.75 19.5625 C-18.63171875 19.29566406 -19.5134375 19.02882813 -20.421875 18.75390625 C-22.59996864 18.11697887 -24.79844581 17.55038855 -27 17 C-26.67 22.94 -26.34 28.88 -26 35 C-26.66 35 -27.32 35 -28 35 C-28.33 29.39 -28.66 23.78 -29 18 C-35.45386387 18.60616963 -35.45386387 18.60616963 -41 20.5625 C-41.99 21.036875 -42.98 21.51125 -44 22 C-44.33 21.34 -44.66 20.68 -45 20 C-43.27656245 19.15488176 -41.54595947 18.32436646 -39.8125 17.5 C-38.84957031 17.0359375 -37.88664062 16.571875 -36.89453125 16.09375 C-34 15 -34 15 -29 15 C-29 10.71 -29 6.42 -29 2 C-28.34 2 -27.68 2 -27 2 C-27 6.29 -27 10.58 -27 15 C-26.05125 15.0825 -25.1025 15.165 -24.125 15.25 C-19.11022533 15.93991766 -14.61545074 18.00337644 -10 20 C-9.75507812 19.33613281 -9.51015625 18.67226562 -9.2578125 17.98828125 C-7.68690669 14.2561603 -5.80210864 10.74550093 -3.875 7.1875 C-3.50246094 6.49462891 -3.12992188 5.80175781 -2.74609375 5.08789062 C-1.83309623 3.39065164 -0.91687284 1.69514862 0 0 Z " fill="#DFF5FB" transform="translate(79,59)"/>
<path d="M0 0 C0 5.94 0 11.88 0 18 C-5.46792531 14.73843052 -10.29071003 11.28251057 -15 7 C-14 4 -14 4 -12.109375 2.83203125 C-11.33078125 2.49558594 -10.5521875 2.15914063 -9.75 1.8125 C-8.59757812 1.29623047 -8.59757812 1.29623047 -7.421875 0.76953125 C-5 0 -5 0 0 0 Z " fill="#0FB2E4" transform="translate(50,76)"/>
<path d="M0 0 C5.94266566 0.84895224 8.88778439 1.60038859 14 4 C12.45212498 7.83450856 10.06277254 10.02555699 7 12.75 C6.113125 13.54921875 5.22625 14.3484375 4.3125 15.171875 C2 17 2 17 0 17 C0 11.39 0 5.78 0 0 Z " fill="#05AFE3" transform="translate(52,76)"/>
<path d="M0 0 C3.83902629 2.33679861 6.20953589 3.86281109 8 8 C0.97319219 10.87217429 -5.39845954 12.67021516 -13 13 C-10.37127258 10.29395707 -7.74727437 7.74733604 -4.8125 5.375 C-1.88119654 3.12277665 -1.88119654 3.12277665 0 0 Z " fill="#06B0E3" transform="translate(68,82)"/>
<path d="M0 0 C3.41997495 1.4991671 5.87065088 3.49437137 8.625 6 C9.78902344 7.051875 9.78902344 7.051875 10.9765625 8.125 C12.34234404 9.39058907 13.6833613 10.6833613 15 12 C7.39845954 11.67021516 1.02680781 9.87217429 -6 7 C-4.47427344 3.67364118 -3.06655496 2.04436998 0 0 Z " fill="#0AB1E4" transform="translate(32,83)"/>
<path d="M0 0 C0.66 0 1.32 0 2 0 C2.91050683 11.02363628 3.1139891 21.94305724 3 33 C2.34 33 1.68 33 1 33 C0.67 27.39 0.34 21.78 0 16 C-6.45386387 16.60616963 -6.45386387 16.60616963 -12 18.5625 C-12.99 19.036875 -13.98 19.51125 -15 20 C-15.33 19.34 -15.66 18.68 -16 18 C-14.27656245 17.15488176 -12.54595947 16.32436646 -10.8125 15.5 C-9.84957031 15.0359375 -8.88664062 14.571875 -7.89453125 14.09375 C-5 13 -5 13 0 13 C0 8.71 0 4.42 0 0 Z " fill="#BFEBF8" transform="translate(50,61)"/>
<path d="M0 0 C-0.27837072 3.3404486 -0.72025133 4.72025133 -3.125 7.125 C-7.18807339 9.77483047 -11.03675255 12 -16 12 C-16.33 13.32 -16.66 14.64 -17 16 C-17.66 15.67 -18.32 15.34 -19 15 C-18.67 14.34 -18.34 13.68 -18 13 C-18.99 12.34 -19.98 11.68 -21 11 C-19.80503906 10.74476562 -19.80503906 10.74476562 -18.5859375 10.484375 C-12.61013341 9.11764608 -7.73920796 7.97068775 -3 4 C-2.67 3.34 -2.34 2.68 -2 2 C-12.56 2 -23.12 2 -34 2 C-34 1.67 -34 1.34 -34 1 C-29.45839728 0.83156021 -24.91670855 0.66555982 -20.375 0.5 C-19.08980469 0.45230469 -17.80460937 0.40460937 -16.48046875 0.35546875 C-14.61455078 0.28779297 -14.61455078 0.28779297 -12.7109375 0.21875 C-11.56931152 0.17685547 -10.42768555 0.13496094 -9.25146484 0.09179688 C-6.16548737 0.00467212 -3.08699651 -0.01635495 0 0 Z " fill="#3B3536" transform="translate(121,31)"/>
<path d="M0 0 C3.69337628 2.46225085 3.98848285 4.05898885 5.4375 8.1875 C6.83571027 12.0378906 8.1873221 15.59552256 10.375 19.0625 C12 22 12 22 12.125 24.125 C10.2939832 27.17669467 7.86583807 28.89448632 5 31 C4.34 31 3.68 31 3 31 C4.39332574 27.63279613 5.9789286 26.0140476 9 24 C7.05364834 18.95076888 4.69163659 14.12424497 2.33984375 9.25390625 C1.04811696 6.11685547 0.40991143 3.35520093 0 0 Z " fill="#DAF3FA" transform="translate(21,58)"/>
<path d="M0 0 C0.66 0.33 1.32 0.66 2 1 C-2.29 5.29 -6.58 9.58 -11 14 C-11 10.30159372 -10.17133056 9.68584567 -7.75 7 C-7.14671875 6.319375 -6.5434375 5.63875 -5.921875 4.9375 C-4.06233388 3.06284066 -2.15205789 1.52358081 0 0 Z " fill="#B43D52" transform="translate(19,9)"/>
<path d="M0 0 C1.32 0 2.64 0 4 0 C4.33 1.98 4.66 3.96 5 6 C3.33333333 6 1.66666667 6 0 6 C0 4.02 0 2.04 0 0 Z " fill="#BAE9F7" transform="translate(86,64)"/>
<path d="M0 0 C0.99 0.33 1.98 0.66 3 1 C3.33 2.65 3.66 4.3 4 6 C2.02 6 0.04 6 -2 6 C-1.34 4.02 -0.68 2.04 0 0 Z " fill="#BAE9F7" transform="translate(62,64)"/>
</svg>
