<svg width="25" height="24" viewBox="0 0 25 24" fill="none" xmlns="http://www.w3.org/2000/svg">
<rect x="0.756836" y="0.5" width="23" height="23" rx="11.5" fill="white"/>
<rect x="0.756836" y="0.5" width="23" height="23" rx="11.5" stroke="#BD8B13"/>
<path d="M13.2488 9.65221L13.2378 9.64132L13.0405 9.44531L12.8213 9.6631L13.0405 9.88088L13.2488 9.65221Z" fill="#BD8B13"/>
<path d="M13.6877 9.65221L13.6548 9.64132L13.4575 9.44531L13.2383 9.6631L13.4575 9.88088L13.6877 9.65221Z" fill="#BD8B13"/>
<path d="M10.7063 9.60916C10.7063 9.65272 10.7501 9.67449 10.783 9.68538C10.8268 9.69627 10.8707 9.72894 10.8707 9.79428V11.4712H12.734V11.5039C12.734 11.5148 12.734 11.5148 12.734 11.5475C12.734 11.689 12.7778 11.7761 12.8546 11.8088C12.8546 11.8088 12.8984 11.8415 12.9642 11.8415C13.008 11.8415 13.0519 11.8306 13.1067 11.7979L13.1395 11.787L13.1067 11.7543C13.0628 11.7108 13.0299 11.5801 13.0299 11.5039V11.493H13.7205V9.94673C13.7205 9.94673 13.6328 10.1427 13.293 10.3932C13.293 10.3932 13.304 10.4585 13.3697 10.4912C13.4574 10.5347 13.4464 10.5892 13.4464 10.5892V11.2099H13.019V11.1772V11.1445C13.019 10.9921 12.9751 10.6219 12.5586 10.6219H12.5477C12.4271 10.6219 12.3065 10.6219 12.2079 10.6219H12.175C11.9339 10.6219 11.8023 10.5892 11.7585 10.5239L11.7475 10.4912L11.7366 10.5021C11.6927 10.5347 11.6599 10.5892 11.6599 10.6545C11.6599 10.7525 11.7256 10.8723 11.8133 10.8723C11.8791 10.8723 11.9668 10.8723 12.0544 10.8723C12.2079 10.8723 12.3833 10.8723 12.3833 10.8723C12.723 10.8723 12.734 11.0248 12.734 11.0901V11.1663H11.1447V9.11914C11.1447 9.11914 10.9584 9.36959 10.6953 9.55471V9.5656V9.60916H10.7063Z" fill="#BD8B13"/>
<path d="M9.62111 11.7214C9.62111 11.7214 9.58823 11.9718 10.1034 11.9718C10.5199 11.9718 10.5308 11.7105 10.5308 11.7105V10.7522C10.5308 10.6869 10.5199 10.5236 10.3445 10.5236H8.89771V10.4147C8.89771 10.382 8.90867 10.382 8.94155 10.3711C9.01827 10.3276 9.02923 10.2731 9.01827 10.2513C8.85386 10.1533 8.68945 9.93555 8.68945 9.93555V10.774H10.1363H10.1472C10.1911 10.774 10.2568 10.7849 10.2568 10.8829V11.5581C10.2568 11.5581 10.2568 11.6996 10.1143 11.6996C9.88417 11.6996 9.89513 11.5798 9.89513 11.5798V11.2096H8.68945V11.5036H9.64303V11.7214H9.62111Z" fill="#BD8B13"/>
<path d="M15.6824 9.79481C15.6824 9.71859 15.7263 9.69681 15.7592 9.68592C15.792 9.67503 15.8249 9.65325 15.8359 9.58792V9.57703C15.8359 9.54436 15.8249 9.54436 15.792 9.53347C15.7592 9.52258 15.7153 9.48991 15.6276 9.41369C15.4742 9.2939 15.4413 9.22857 15.4413 9.22857L15.3975 9.15234V11.4935H15.6934C15.6824 11.4827 15.6824 9.83837 15.6824 9.79481Z" fill="#BD8B13"/>
<path d="M14.6961 11.7876L14.4988 11.9836L14.3015 11.7876L14.4988 11.5915L14.6961 11.7876ZM14.0275 11.7876L14.5097 12.2667L14.992 11.7876L14.6961 11.4935L15.0468 11.1233V9.15234C15.0468 9.15234 14.9043 9.44635 14.6741 9.5988V9.60969C14.6741 9.65325 14.707 9.67503 14.7399 9.68592C14.7728 9.69681 14.8057 9.72948 14.8057 9.79481C14.8057 9.86015 14.8057 10.9817 14.8057 10.9817L14.5097 11.2866L14.2138 10.9817C14.2138 10.9709 14.2138 9.83837 14.2138 9.79481C14.2138 9.71859 14.2467 9.69681 14.2796 9.68592C14.3124 9.67503 14.3234 9.65325 14.3453 9.60969V9.5988C14.1261 9.44635 13.9727 9.15234 13.9727 9.15234V11.156L14.3234 11.5153L14.0275 11.7876Z" fill="#BD8B13"/>
<path d="M13.1837 12.822L13.2604 12.8656C13.2714 12.8765 13.2714 12.8765 13.2714 12.8982V13.5189H11.9341L11.6273 13.9001V12.8982V12.8874L11.6382 12.8765L11.704 12.8329V12.7676H11.0244V12.8329L11.0902 12.8765L11.1011 12.8874V14.7277V14.7603L11.0902 14.7712L11.0244 14.8148V14.8801H11.704V14.8148L11.6273 14.7712L11.6163 14.7603V13.9218L11.693 13.9327L11.7807 13.8892L11.8245 13.8783C11.8245 13.8783 11.8355 13.8783 11.8574 13.8783H13.2604V14.5316L13.7646 13.9872V12.92L13.7755 12.9091L13.8523 12.8765V12.8111H13.1837V12.822Z" fill="#BD8B13"/>
<path d="M20.428 13.5723C20.3513 13.3218 20.1649 13.1258 19.8909 12.9734C19.6498 12.8318 19.2881 12.7773 18.8168 12.7773H16.9863V12.8427L17.0631 12.8862V13.104H18.8058C19.1565 13.104 19.4196 13.1476 19.573 13.2456C19.8142 13.3871 19.9457 13.5832 19.9457 13.8118C19.9457 13.9316 19.9128 14.0405 19.858 14.1494C19.7923 14.2474 19.6936 14.3345 19.5621 14.3998C19.3977 14.4979 19.1346 14.5414 18.7948 14.5414H17.8851V13.2456H17.3919V14.7156V14.7265L17.3809 14.7374L17.3151 14.7701V14.8354H18.8058C19.1017 14.8354 19.31 14.8245 19.4854 14.7919C19.7046 14.7483 19.9019 14.6721 20.0553 14.5632C20.2197 14.4543 20.3513 14.3127 20.4061 14.1821C20.4499 14.0732 20.4828 13.9643 20.4828 13.8445C20.4609 13.7465 20.4389 13.6485 20.428 13.5723Z" fill="#BD8B13"/>
<path d="M14.806 13.1484L13.1729 14.8363H13.9291V14.7601H13.8963H13.8634H13.8305L15.08 13.4533L14.806 13.1484Z" fill="#BD8B13"/>
<path d="M16.4498 14.781V14.8572H17.1841L15.2112 12.7773L14.9153 13.0822L15.2441 13.4198L15.5839 13.7574H15.0139L14.707 14.0841L14.7728 14.1276L14.8495 14.0841H14.8605C14.8605 14.0841 14.8934 14.0841 14.9043 14.0841H15.8579L16.5155 14.7919C16.5155 14.7919 16.5046 14.8028 16.4498 14.8028H16.4388V14.781H16.4498Z" fill="#BD8B13"/>
<path d="M10.7393 12.8648L10.8051 12.8212V12.7559H10.1475V12.8212L10.2132 12.8648L10.2461 12.8974V14.705V14.7377L10.2351 14.7486L10.1584 14.7813V14.8466H10.8161V14.7813L10.7503 14.7486L10.7393 14.7377V12.8974V12.8865V12.8648Z" fill="#BD8B13"/>
<path d="M7.44002 14.444H7.40714H7.33041L7.24273 14.4876C7.23177 14.4984 7.20984 14.4984 7.19888 14.4984H5.69727C5.35749 14.4984 5.09443 14.4549 4.93002 14.3569C4.66697 14.2153 4.5464 14.0302 4.5464 13.7689C4.5464 13.66 4.57928 13.5402 4.65601 13.4422C4.77658 13.2571 4.96291 13.1155 5.23692 13.0719C5.31365 13.0611 5.37941 13.0611 5.42326 13.0611H6.1905C6.23434 13.0611 6.23434 13.0719 6.23434 13.0719L6.22338 13.1373H6.27819L6.60701 12.7344H5.68631C5.4671 12.7344 5.30269 12.7344 5.19308 12.7453C5.12732 12.7453 5.07251 12.7562 5.02867 12.7779C4.87522 12.8106 4.73273 12.8759 4.6012 12.9522C4.36007 13.0828 4.19566 13.2462 4.10797 13.4313C4.06413 13.5402 4.03125 13.66 4.03125 13.8015C4.03125 14.1391 4.21758 14.4004 4.56832 14.6073C4.72177 14.7053 4.9081 14.7598 5.1054 14.7925C5.25885 14.8251 5.45614 14.8251 5.70823 14.8251H7.10024L7.44002 14.444Z" fill="#BD8B13"/>
<path d="M6.68387 13.9439L7.01269 13.541H4.83152L4.6123 13.8677H6.57426C6.60715 13.8677 6.61811 13.8786 6.61811 13.8786L6.60715 13.9439H6.68387Z" fill="#BD8B13"/>
<path d="M6.84791 12.7559L6.54102 13.137L6.60678 13.1479H6.61774L6.70543 13.1043C6.73831 13.0934 6.74927 13.0716 6.78215 13.0716H7.98782V14.6942V14.705L7.97686 14.7159L7.9111 14.7595V14.8248H8.59066V14.7595L8.5249 14.7159L8.51394 14.705V14.6942V13.0825H9.57712C9.62096 13.0825 9.62096 13.0934 9.62096 13.0934V13.1588H9.68673L10.0155 12.7559H6.84791Z" fill="#BD8B13"/>
</svg>
