<svg width="24" height="24" viewBox="0 0 24 24" fill="none" xmlns="http://www.w3.org/2000/svg">
<rect width="24" height="24" rx="12" fill="#0D3254"/>
<path fill-rule="evenodd" clip-rule="evenodd" d="M16.6159 8.80296C16.743 7.57299 15.2177 6.57145 14.0918 7.18643C12.8934 7.696 12.7844 9.52338 13.9102 10.1559C14.9453 10.9115 16.634 10.0681 16.6159 8.80296ZM3.50532 8.6624C3.19661 8.50426 2.76082 8.94353 3.1603 9.10167C4.40169 9.92875 5.74 10.5848 7.0826 11.2429C8.13599 11.7592 9.192 12.2769 10.2059 12.8794C11.0593 13.4066 12.0944 14.1797 11.9491 15.2867C11.7693 16.5337 11.1566 17.6611 10.55 18.7774C10.4215 19.0138 10.2933 19.2497 10.1696 19.4861C10.0243 19.6794 10.0061 20.1363 10.3875 19.9605C11.0514 19.6539 11.6276 19.1896 12.1993 18.7288C12.3156 18.6351 12.4317 18.5415 12.5483 18.4494C13.9829 17.2019 15.3811 15.8665 16.4162 14.2851C16.7067 13.8458 17.0336 13.3363 16.9972 12.8267C16.9791 12.4577 16.7612 12.1063 16.4525 11.8955C16.1303 11.658 15.7435 11.5584 15.3574 11.4591C15.2865 11.4408 15.2155 11.4226 15.145 11.4035C13.4066 11.0026 11.6719 10.5876 9.9375 10.1728C7.79489 9.66029 5.65289 9.14792 3.50532 8.6624Z" fill="white"/>
</svg>
