<svg width="25" height="24" viewBox="0 0 25 24" fill="none" xmlns="http://www.w3.org/2000/svg">
<rect x="0.756836" y="0.5" width="23" height="23" rx="11.5" fill="white"/>
<rect x="0.756836" y="0.5" width="23" height="23" rx="11.5" stroke="#FD8632"/>
<path opacity="0.88" fill-rule="evenodd" clip-rule="evenodd" d="M11.6493 7C11.7596 7 11.8698 7 11.98 7C12.5591 7.9722 13.1103 8.96212 13.6334 9.96976C13.7733 10.3606 13.9937 10.6906 14.2948 10.9597C14.6557 11.5956 15.0415 12.2189 15.4521 12.8295C15.5256 14.0761 15.5256 15.3227 15.4521 16.5692C14.9009 15.1041 14.2946 13.6742 13.6334 12.2796C13.6332 11.8383 13.5047 11.4351 13.2476 11.0697C13.1737 10.9869 13.0818 10.9502 12.9721 10.9597C12.7315 10.3351 12.3458 9.82181 11.8147 9.4198C11.2605 9.77167 10.838 10.2483 10.5471 10.8497C10.1617 10.596 9.9413 10.2293 9.88574 9.74978C10.4996 8.85585 11.0874 7.93925 11.6493 7Z" fill="#FD8632"/>
<path opacity="0.955" fill-rule="evenodd" clip-rule="evenodd" d="M15.3964 7C15.5066 7 15.6169 7 15.7271 7C16.8256 9.04508 17.983 11.0616 19.1992 13.0495C19.2909 14.2611 19.2726 15.471 19.1441 16.6792C18.5921 15.1749 18.0225 13.6717 17.4356 12.1696C17.1256 11.4777 16.7583 10.8177 16.3333 10.1897C15.8497 9.39356 15.3352 9.3569 14.7902 10.0798C14.6438 10.389 14.4785 10.6823 14.2942 10.9597C13.9931 10.6906 13.7727 10.3606 13.6328 9.96976C14.2467 9.00242 14.8345 8.01251 15.3964 7Z" fill="#0E3D6F"/>
<path opacity="0.965" fill-rule="evenodd" clip-rule="evenodd" d="M9.88521 9.75049C9.94076 10.23 10.1612 10.5967 10.5466 10.8504C10.9203 11.559 11.3244 12.2556 11.759 12.9402C12.2212 12.3103 12.6254 11.6504 12.9715 10.9604C13.0813 10.951 13.1731 10.9876 13.2471 11.0704C13.5041 11.4358 13.6326 11.8391 13.6329 12.2803C12.9961 13.7266 12.3899 15.1931 11.8142 16.6799C11.2377 15.1265 10.6314 13.5866 9.99543 12.0603C9.91673 11.5727 9.69628 11.1694 9.33408 10.8504C9.09335 10.3883 8.76267 10.0033 8.34205 9.69549C7.93808 9.65292 7.62581 9.81791 7.40514 10.1905C6.22859 12.2457 5.29168 14.4089 4.59439 16.6799C4.48416 16.6799 4.37394 16.6799 4.26371 16.6799C4.24536 15.5061 4.26374 14.3329 4.31883 13.1602C5.58012 11.1916 6.81102 9.21176 8.01138 7.22069C8.13825 7.08529 8.26677 7.08529 8.39716 7.22069C8.87455 8.08037 9.37056 8.92363 9.88521 9.75049Z" fill="#0F3D6F"/>
</svg>
