<svg width="25" height="24" viewBox="0 0 25 24" fill="none" xmlns="http://www.w3.org/2000/svg">
<rect x="0.256836" width="24" height="24" rx="12" fill="#E60012"/>
<path d="M9.35662 5.32977C10.0484 5.1535 10.7569 5.04727 11.4688 5C10.1725 5.11391 8.87421 5.47102 7.77895 6.19038C7.0932 6.64375 6.48206 7.25972 6.17706 8.03461C5.92931 8.65429 5.9182 9.36453 6.15428 9.98933C6.43337 10.7437 7.00691 11.354 7.6582 11.8091C8.20555 12.1935 8.8201 12.4709 9.45146 12.6862C10.0973 12.9015 10.7557 13.1071 11.3387 13.4671C11.712 13.6963 12.0543 13.9979 12.2571 14.392C12.4066 14.0996 12.6364 13.8541 12.8967 13.6573C13.5104 13.1957 14.2503 12.9542 14.971 12.7172C15.7482 12.4598 16.5052 12.1087 17.1451 11.5915C17.7291 11.123 18.2227 10.5068 18.4286 9.77831C18.6088 9.16091 18.5473 8.48342 18.2813 7.90048C17.9427 7.15065 17.3245 6.56173 16.6376 6.12659C15.5583 5.44881 14.2961 5.10622 13.0337 5.00057C14.2585 5.07689 15.4771 5.33632 16.6082 5.8176C17.3319 6.12801 18.0207 6.53297 18.6097 7.05838C19.0964 7.49495 19.5156 8.02037 19.7696 8.62695C19.9666 9.08915 20.0575 9.59662 20.0247 10.0987C19.992 10.7195 19.7795 11.3267 19.4335 11.8418C18.9685 12.5398 18.2961 13.0746 17.5751 13.4896C17.1359 13.7419 16.6743 13.9523 16.201 14.1317C15.5107 14.3971 14.8275 14.6999 14.2209 15.1285C13.6275 15.542 13.1103 16.0736 12.7532 16.7053C12.5185 17.1148 12.3562 17.563 12.2565 18.0241C12.074 17.1931 11.6653 16.4117 11.0716 15.8003C10.3462 15.0388 9.39251 14.5478 8.42169 14.1747C7.72028 13.9107 7.03539 13.5904 6.41799 13.1615C5.74989 12.6999 5.15385 12.101 4.80699 11.3583C4.45472 10.6079 4.3784 9.72363 4.63128 8.93166C4.88958 8.1095 5.45259 7.41607 6.11384 6.87812C7.05589 6.1189 8.19017 5.62851 9.35662 5.32977Z" fill="white"/>
<path d="M10.502 5.32794C10.727 5.28409 10.9525 5.23938 11.1821 5.22656C10.33 5.33136 9.49162 5.60219 8.75575 6.04815C8.18762 6.39985 7.67017 6.87942 7.39792 7.50024C7.16355 8.02252 7.157 8.63879 7.37457 9.16734C7.60467 9.73832 8.05747 10.1905 8.56353 10.5269C9.30367 11.0153 10.1614 11.2972 11.0266 11.4647C11.4597 11.5458 11.9208 11.6387 12.2548 11.9485C12.5994 11.6287 13.0776 11.5407 13.5232 11.4567C14.2232 11.32 14.9124 11.1036 15.5435 10.7669C16.1207 10.4571 16.6609 10.0336 16.993 9.45924C17.2929 8.94863 17.38 8.31328 17.2029 7.74543C17.0266 7.16192 16.6145 6.67922 16.1387 6.31214C15.4273 5.76878 14.5681 5.44784 13.6944 5.27925C13.5714 5.25276 13.4458 5.24023 13.3208 5.22799C13.6053 5.23995 13.8843 5.30146 14.162 5.36041C15.0824 5.56887 15.9834 5.93566 16.7262 6.52743C17.2271 6.92954 17.6545 7.45297 17.8425 8.07521C18.0316 8.6872 17.953 9.37323 17.6363 9.92941C17.2983 10.5317 16.7464 10.9805 16.1577 11.3243C15.6662 11.6105 15.1391 11.8297 14.6003 12.0077C14.0595 12.1897 13.4965 12.3047 12.9696 12.5289C12.6857 12.6496 12.4135 12.8299 12.2548 13.1018C12.0942 12.827 11.8186 12.6462 11.5315 12.5255C10.9414 12.2771 10.3084 12.1595 9.70862 11.9394C8.88618 11.6461 8.07655 11.2551 7.43722 10.6485C7.00237 10.2358 6.66917 9.69446 6.5883 9.09329C6.50656 8.5394 6.6387 7.96471 6.92718 7.48799C7.2131 7.00729 7.62916 6.61515 8.0888 6.3016C8.81413 5.81178 9.64882 5.50337 10.502 5.32794Z" fill="white"/>
<path d="M9.11589 6.12101C9.63618 5.79494 10.2194 5.5711 10.8206 5.45121C10.2715 5.58648 9.74069 5.81231 9.28134 6.1455C8.88892 6.43427 8.54747 6.82015 8.39597 7.2906C8.25386 7.71834 8.30227 8.19933 8.51187 8.59688C8.80035 9.15277 9.32093 9.54947 9.8734 9.82001C10.7984 10.2651 11.8526 10.4015 12.869 10.3036C13.7219 10.215 14.578 9.95414 15.27 9.43413C15.7065 9.10436 16.0767 8.64102 16.1721 8.08998C16.261 7.61496 16.1143 7.11803 15.8287 6.73528C15.4377 6.2036 14.8508 5.85133 14.2422 5.62066C14.0608 5.55174 13.8751 5.49592 13.6872 5.44922C14.1824 5.54604 14.6634 5.71947 15.1102 5.95356C15.6536 6.24432 16.1596 6.65099 16.4564 7.20118C16.6876 7.62436 16.7554 8.13782 16.6193 8.60229C16.4709 9.1223 16.1052 9.55232 15.6838 9.87668C15.1273 10.3016 14.468 10.5789 13.7885 10.7339C13.4118 10.8219 13.0231 10.8458 12.6466 10.9378C12.4982 10.9714 12.3607 11.0466 12.2564 11.1576C12.0204 10.9022 11.6481 10.8993 11.3298 10.8398C10.5255 10.7384 9.73186 10.4861 9.05295 10.0364C8.59873 9.73401 8.18808 9.33304 7.9725 8.82385C7.77657 8.36991 7.77629 7.83852 7.97051 7.38372C8.19463 6.84805 8.63205 6.42886 9.11589 6.12101Z" fill="white"/>
<path d="M12.0986 5.85624C12.4674 5.81552 12.8501 5.92088 13.144 6.147C13.4823 6.40188 13.7016 6.80655 13.7298 7.22945C13.7594 7.60336 13.6415 7.98753 13.4051 8.27971C13.1517 8.59866 12.7618 8.8057 12.3546 8.83019C11.9696 8.8581 11.5774 8.72397 11.2884 8.46852C10.9748 8.19656 10.7852 7.78932 10.7789 7.3744C10.7675 6.98055 10.9202 6.58556 11.1941 6.30249C11.4305 6.05359 11.7568 5.89184 12.0986 5.85624Z" fill="white"/>
<path d="M7.23893 14.925C7.98278 14.7846 8.76079 14.9273 9.43857 15.2516C10.2379 15.6338 10.9191 16.2424 11.4278 16.9646C11.7552 17.4299 12.0101 17.9482 12.1656 18.4961C11.8729 18.0624 11.5192 17.6708 11.1339 17.3168C10.6178 16.8481 10.0278 16.4426 9.36082 16.2239C8.88752 16.0772 8.36808 16.0274 7.88823 16.1715C7.63392 16.2486 7.39101 16.3933 7.24036 16.6169C7.10822 16.8077 7.05183 17.0585 7.1236 17.2827C7.20134 17.5301 7.43999 17.7198 7.70056 17.7286C8.003 17.7463 8.29233 17.515 8.34729 17.2186C8.39798 16.9666 8.28037 16.6963 8.06992 16.5516C8.32166 16.6544 8.54664 16.8304 8.68077 17.0702C8.89094 17.4313 8.88894 17.9018 8.68305 18.2634C8.52129 18.5565 8.23395 18.7618 7.92582 18.8803C7.5052 19.0432 7.03133 19.0286 6.60445 18.8971C6.16959 18.7624 5.7857 18.4693 5.5445 18.0829C5.262 17.6347 5.17258 17.0688 5.30557 16.5562C5.41435 16.123 5.67236 15.7326 6.01837 15.4527C6.36637 15.167 6.80151 15.0096 7.23893 14.925ZM15.9088 14.9569C16.5028 14.8216 17.1347 14.8444 17.7117 15.0434C18.0998 15.1682 18.4621 15.3863 18.7323 15.6945C18.9972 15.9915 19.1772 16.3648 19.2336 16.7595C19.3113 17.2901 19.1612 17.8508 18.8226 18.268C18.2909 18.9375 17.2979 19.185 16.5116 18.8564C16.1813 18.7174 15.8848 18.4676 15.751 18.1287C15.5949 17.7523 15.6431 17.2955 15.8868 16.9666C16.0201 16.7769 16.2166 16.6413 16.4282 16.5531C16.1941 16.7131 16.0771 17.0332 16.175 17.3035C16.263 17.5615 16.529 17.7474 16.8027 17.7295C17.0758 17.7184 17.3227 17.5088 17.3868 17.2445C17.4517 16.9891 17.3571 16.714 17.1837 16.5215C16.957 16.2654 16.6153 16.1444 16.2838 16.1025C15.7889 16.0453 15.2825 16.1433 14.8283 16.3412C14.3419 16.5488 13.9011 16.8518 13.5015 17.1961C13.0618 17.5794 12.6623 18.0111 12.3339 18.4947C12.609 17.5281 13.1871 16.6596 13.9386 15.9969C14.5014 15.5036 15.1743 15.1215 15.9088 14.9569Z" fill="white"/>
</svg>
