<svg width="25" height="24" viewBox="0 0 25 24" fill="none" xmlns="http://www.w3.org/2000/svg">
<rect x="0.256836" width="24" height="24" rx="12" fill="#5C0632"/>
<path d="M16.6275 11.8553C16.6275 11.9263 15.6291 11.993 14.2038 12.0489C13.9521 11.9061 13.7611 11.7626 13.6212 11.6389C15.3498 11.7 16.6275 11.7755 16.6275 11.8553ZM15.6037 9.44898C15.6037 9.50823 14.7668 9.56379 13.5704 9.61163C13.7418 9.51154 13.9185 9.4107 14.104 9.3095C15.0078 9.35107 15.6037 9.39929 15.6037 9.44898ZM6.689 14.6259C6.13514 14.6325 5.64935 14.635 5.26992 14.635C4.7238 14.635 4.28144 14.4669 4.28144 14.2582C4.28144 14.0506 4.72378 13.8825 5.26992 13.8825C5.7535 13.8825 6.40858 13.8876 7.16006 13.8972C6.86934 14.3167 6.73132 14.5688 6.71845 14.5846C6.70998 14.5968 6.6993 14.6111 6.689 14.6259ZM6.98736 15.1299C7.16989 15.3503 7.34506 15.5358 7.57949 15.7386C7.57949 15.7386 7.66781 15.8648 7.93609 15.7566C8.20917 15.6454 8.44065 15.4942 8.70157 15.1442C9.46337 15.1571 10.2712 15.174 11.0664 15.1921C11.1319 15.2874 11.2648 15.4846 11.4286 15.7279C9.21164 15.7853 6.80554 15.8195 5.57306 15.8195C5.05969 15.8195 4.64309 15.6602 4.64309 15.4651C4.64309 15.269 5.05967 15.1107 5.57306 15.1107C5.94845 15.1107 6.43201 15.1133 6.9855 15.1195C6.9854 15.1231 6.98603 15.1266 6.98736 15.1299ZM6.12978 16.9787C5.67415 16.9787 5.30504 16.8384 5.30504 16.6655C5.30504 16.4921 5.67415 16.3515 6.12976 16.3515C7.33501 16.3515 9.80588 16.3884 11.922 16.4484C12.0239 16.5945 12.1258 16.7398 12.2226 16.8734C10.044 16.9374 7.39207 16.9787 6.12976 16.9787M13.1578 17.984C11.3807 18.062 8.32506 18.1143 7.05538 18.1143C6.69806 18.1143 6.40769 18.0028 6.40769 17.8677C6.40769 17.7316 6.69806 17.6208 7.0554 17.6208C8.26984 17.6208 11.122 17.6686 12.9219 17.7404C13.0033 17.8276 13.0828 17.9097 13.1578 17.984M8.52147 18.6506C9.56994 18.6506 12.7617 18.7297 12.7617 18.8254C12.7617 18.9225 9.56958 19.0009 8.52147 19.0009C8.31723 19.0009 8.15198 18.9225 8.15198 18.8254C8.15198 18.7297 8.31721 18.6506 8.52147 18.6506ZM8.53307 12.1968C7.21335 12.2193 6.03092 12.2318 5.26985 12.2318C4.72408 12.2318 4.28137 12.0636 4.28137 11.8553C4.28137 11.6474 4.72408 11.4784 5.26985 11.4784C6.15384 11.4784 7.60639 11.4954 9.18113 11.5252C8.95984 11.7439 8.74376 11.9678 8.53307 12.1968ZM15.0061 10.5136C15.7793 10.5556 16.2658 10.6016 16.2658 10.6494C16.2658 10.702 15.677 10.7524 14.7657 10.7973C14.9604 10.6509 15.0031 10.5232 15.0061 10.5136ZM5.57325 11.0032C5.05949 11.0032 4.64291 10.845 4.64291 10.6492C4.64291 10.4538 5.05949 10.2948 5.57325 10.2948C6.62686 10.2948 8.53798 10.3205 10.455 10.3629C10.2282 10.5541 10.0053 10.7498 9.7863 10.9499C8.10373 10.9837 6.50434 11.0032 5.57325 11.0032M11.3025 9.68245C9.34243 9.73212 7.21899 9.76266 6.12965 9.76266C5.67404 9.76266 5.3053 9.62245 5.3053 9.44912C5.3053 9.27579 5.67404 9.13484 6.12965 9.13484C7.33197 9.13484 9.79693 9.17237 11.9101 9.23199C11.8048 9.30853 11.6988 9.38508 11.5914 9.46531C11.4935 9.53818 11.3971 9.60994 11.3025 9.68245M7.05526 8.49302C6.69791 8.49302 6.40753 8.38298 6.40753 8.24646C6.40753 8.11028 6.69791 7.9995 7.05526 7.9995C8.4033 7.9995 11.7655 8.05911 13.4731 8.14412C13.3642 8.21554 13.2552 8.2895 13.1452 8.36385C11.3655 8.44075 8.32233 8.49302 7.05526 8.49302ZM5.16802 13.4401C4.61233 13.4401 4.16113 13.269 4.16113 13.0566C4.16113 12.8458 4.61233 12.6739 5.16802 12.6739C5.86466 12.6739 6.90729 12.6842 8.08639 12.7022C7.88705 12.9365 7.69402 13.176 7.5075 13.4206C6.56869 13.4331 5.74801 13.4401 5.16802 13.4401ZM8.15213 7.28845C8.15213 7.19166 8.31735 7.11328 8.52161 7.11328C9.56972 7.11328 12.7619 7.19166 12.7619 7.28845C12.7619 7.38452 9.5701 7.46326 8.52161 7.46326C8.31737 7.46326 8.15213 7.38452 8.15213 7.28845Z" fill="#747F8A"/>
<path d="M16.7312 12.7718C16.7386 12.9606 16.7375 13.1496 16.7279 13.3382C14.8709 13.4118 13.1099 13.5237 13.1099 13.6495C13.1099 13.7732 14.8315 13.884 16.6672 13.9572C16.6353 14.167 16.5936 14.3751 16.5424 14.581C14.7329 14.655 13.0536 14.7639 13.0536 14.8865C13.0536 15.0046 14.6214 15.1109 16.3573 15.1849C16.2778 15.4065 16.1877 15.6218 16.0865 15.8278C14.5956 15.8996 13.3635 15.9953 13.3635 16.0998C13.3635 16.1973 14.44 16.2875 15.7968 16.3571C15.7206 16.4811 15.6412 16.6025 15.558 16.7173C15.4697 16.8425 15.3736 16.9665 15.272 17.0883C14.4238 17.1527 13.8416 17.2259 13.8416 17.3043C13.8416 17.3717 14.2585 17.4346 14.9011 17.4909C14.5504 17.838 14.136 18.1622 13.6476 18.4452C13.6476 18.4452 13.0724 17.9498 12.5977 17.3713C12.1745 16.8553 11.2765 15.4952 11.0652 15.1908C10.8536 14.8864 10.7145 14.7974 10.4672 14.8857C10.1356 15.0031 9.75033 15.062 9.63182 15.062C9.51331 15.062 9.44818 15.016 9.64691 14.9372C9.8449 14.8574 10.6277 14.4879 11.013 13.7243C11.4458 12.8642 11.0652 11.6766 11.0652 11.6766C10.9199 12.3115 10.5894 12.5484 10.5894 12.5484C10.6961 11.9589 10.5798 11.4245 10.2887 11.0495L10.1264 11.7959C10.1264 11.7959 10.0249 11.7907 9.77351 12.0019C9.52251 12.2136 9.45333 12.522 9.45333 12.522C9.65096 12.6014 9.8887 12.4031 9.8887 12.4031C9.58508 13.5391 9.14973 14.464 8.83212 14.9531C8.51489 15.4422 8.25323 15.6265 7.93526 15.7557C7.66697 15.8632 7.57865 15.7369 7.57865 15.7369C7.34423 15.5345 7.16906 15.349 6.98652 15.1286C6.98652 15.1286 6.97179 15.1029 7.0211 15.1036C7.15175 15.1054 7.38434 14.8821 7.43513 14.7893C7.49328 14.683 7.48702 14.6016 7.45795 14.5961C7.42924 14.5913 7.37957 14.6756 7.12746 14.8346C6.87684 14.9932 6.76166 14.8832 6.67811 14.7948C6.61335 14.7245 6.67702 14.6377 6.7175 14.5832C6.75578 14.5346 8.08174 12.0619 11.5904 9.46412C16.1884 6.05958 19.1248 5.14025 19.293 5.07401C19.4041 5.03023 19.5856 4.97243 19.6268 5.01476C19.6724 5.06261 19.6949 5.10088 19.6886 5.15645C19.6827 5.21165 19.6533 5.24 19.4406 5.33385C17.6756 6.11146 15.6151 7.40762 14.4444 8.16204C13.0047 8.86349 11.6302 9.86522 11.5801 9.88914C11.4693 9.95796 11.551 10.0581 11.618 10.0161C14.0491 8.39905 16.8994 7.29757 20.0493 6.3952C20.1998 6.35252 20.2822 6.35252 20.3073 6.38564C20.3356 6.42243 20.3477 6.46438 20.3522 6.51075C20.3562 6.56853 20.3084 6.59908 20.1792 6.64949C16.7953 7.90663 14.3012 9.07435 12.697 10.1538C12.697 10.1538 12.5311 10.2539 12.5289 10.3698C12.5281 10.4139 12.6179 10.4191 12.6179 10.4191C13.4209 10.4334 14.4944 10.4806 15.0053 10.5104C15.0053 10.5104 14.9324 10.7691 14.4433 10.9774C14.0657 11.1386 13.7161 11.1128 13.3701 11.1157C13.2932 11.1143 13.2281 11.1919 13.2895 11.2747C13.3205 11.3159 14.0565 12.501 16.7312 12.7718Z" fill="white"/>
</svg>
