<svg width="24" height="24" viewBox="0 0 24 24" fill="none" xmlns="http://www.w3.org/2000/svg">
<rect width="24" height="24" rx="12" fill="#1B2F54"/>
<path d="M15.3559 9.78559C16.3128 9.95824 17.1939 10.4201 17.8806 11.109C18.7765 12.0091 19.2795 13.2277 19.2795 14.4981C19.2795 15.7685 18.7765 16.9871 17.8806 17.8872C16.981 18.7837 15.7632 19.287 14.4936 19.287C13.224 19.287 12.0062 18.7837 11.1066 17.8872C10.2107 16.9871 9.70775 15.7685 9.70775 14.4981C9.70775 13.2277 10.2107 12.0091 11.1066 11.109C11.3179 10.8977 11.4856 10.6468 11.5999 10.3706C11.7143 10.0945 11.7731 9.79849 11.7731 9.49957C11.7731 9.20064 11.7143 8.90464 11.5999 8.62849C11.4856 8.35234 11.3179 8.10144 11.1066 7.89013C10.68 7.4637 10.1017 7.22417 9.49875 7.22417C8.89577 7.22417 8.31745 7.4637 7.89086 7.89013C7.67956 8.10144 7.51194 8.35234 7.39757 8.62849C7.28321 8.90464 7.22435 9.20064 7.22435 9.49957C7.22435 9.79849 7.28321 10.0945 7.39757 10.3706C7.51194 10.6468 7.67956 10.8977 7.89086 11.109C8.26967 11.4875 8.77053 11.719 9.30409 11.7622C9.43664 11.5069 9.58854 11.2621 9.75846 11.03C9.51385 11.0714 9.26289 11.0537 9.02652 10.9783C8.79014 10.9029 8.5752 10.7721 8.39962 10.5967C8.10803 10.3042 7.94427 9.90792 7.94427 9.49476C7.94427 9.08161 8.10803 8.68532 8.39962 8.39281C8.69186 8.10168 9.08744 7.93823 9.49981 7.93823C9.91219 7.93823 10.3078 8.10168 10.6 8.39281C10.8919 8.68518 11.0558 9.08152 11.0558 9.49476C11.0558 9.90801 10.8919 10.3043 10.6 10.5967C9.56988 11.6311 8.99146 13.0319 8.99146 14.4922C8.99146 15.9526 9.56988 17.3534 10.6 18.3878C11.634 19.4202 13.035 20 14.4957 20C15.9564 20 17.3575 19.4202 18.3915 18.3878C19.4216 17.3534 20 15.9526 20 14.4922C20 13.0319 19.4216 11.6311 18.3915 10.5967C17.5672 9.77026 16.5007 9.22882 15.3474 9.05131C15.3664 9.29418 15.37 9.53801 15.3581 9.78133L15.3559 9.78559ZM6.87653 6.86875C7.57301 6.17316 8.51685 5.78249 9.50088 5.78249C10.4849 5.78249 11.4288 6.17316 12.1252 6.86875C12.8204 7.56586 13.2109 8.51046 13.2109 9.4953C13.2109 10.4801 12.8204 11.4247 12.1252 12.1218C11.4973 12.7513 11.1446 13.6044 11.1446 14.4938C11.1446 15.3833 11.4973 16.2364 12.1252 16.8659C12.7548 17.4937 13.6074 17.8463 14.4963 17.8463C15.3851 17.8463 16.2377 17.4937 16.8673 16.8659C17.4945 16.2359 17.8466 15.383 17.8466 14.4938C17.8466 13.6047 17.4945 12.7518 16.8673 12.1218C16.3898 11.6432 15.7784 11.3209 15.1138 11.1976C15.0444 11.4318 14.9592 11.6611 14.8589 11.8838C15.4268 11.9627 15.9533 12.2251 16.3585 12.6309C16.8535 13.1263 17.1316 13.7981 17.1316 14.4987C17.1316 15.1992 16.8535 15.871 16.3585 16.3664C15.8641 16.8596 15.1944 17.1366 14.4963 17.1366C13.7981 17.1366 13.1284 16.8596 12.634 16.3664C12.3886 16.1212 12.194 15.8301 12.0612 15.5096C11.9284 15.1891 11.86 14.8456 11.86 14.4987C11.86 14.1517 11.9284 13.8082 12.0612 13.4877C12.194 13.1672 12.3886 12.8761 12.634 12.6309C13.4633 11.799 13.9291 10.6719 13.9291 9.4969C13.9291 8.32185 13.4633 7.19478 12.634 6.36286C11.8027 5.53243 10.6761 5.06601 9.50142 5.06601C8.32677 5.06601 7.20013 5.53243 6.36883 6.36286C5.53847 7.19422 5.07201 8.32151 5.07201 9.4969C5.07201 10.6723 5.53847 11.7996 6.36883 12.6309C6.99305 13.2607 7.79331 13.6863 8.66414 13.8519C8.68941 13.6134 8.72967 13.3767 8.78467 13.1432C8.05975 13.0036 7.39349 12.6492 6.87227 12.1261C6.17705 11.429 5.7866 10.4844 5.7866 9.49957C5.7866 8.51473 6.17705 7.57012 6.87227 6.87302L6.87653 6.86875ZM8.63748 14.2169C7.68001 14.0441 6.79829 13.5823 6.11072 12.8935C5.21483 11.9934 4.71183 10.7747 4.71183 9.50437C4.71183 8.234 5.21483 7.01537 6.11072 6.11526C7.01026 5.2188 8.22812 4.71548 9.49768 4.71548C10.7672 4.71548 11.9851 5.2188 12.8846 6.11526C13.7821 7.01455 14.2862 8.23348 14.2862 9.50437C14.2862 10.7753 13.7821 11.9942 12.8846 12.8935C12.4589 13.3208 12.2199 13.8996 12.2199 14.5029C12.2199 15.1063 12.4589 15.685 12.8846 16.1124C13.3116 16.5389 13.8903 16.7785 14.4936 16.7785C15.0969 16.7785 15.6756 16.5389 16.1026 16.1124C16.5288 15.6853 16.7682 15.1065 16.7682 14.5029C16.7682 13.8994 16.5288 13.3205 16.1026 12.8935C15.7249 12.5141 15.2247 12.2815 14.6915 12.2371C14.5579 12.4915 14.406 12.7358 14.2371 12.9682C14.4815 12.9257 14.7326 12.9425 14.9692 13.0172C15.2058 13.0918 15.4211 13.2222 15.597 13.3972C15.742 13.5421 15.857 13.7141 15.9355 13.9034C16.014 14.0928 16.0544 14.2958 16.0544 14.5008C16.0544 14.7058 16.014 14.9088 15.9355 15.0981C15.857 15.2875 15.742 15.4595 15.597 15.6043C15.3048 15.8961 14.909 16.0599 14.4963 16.0599C14.0835 16.0599 13.6877 15.8961 13.3955 15.6043C13.104 15.312 12.9403 14.9159 12.9403 14.5029C12.9403 14.0899 13.104 13.6938 13.3955 13.4015C14.4257 12.3671 15.0041 10.9663 15.0041 9.50597C15.0041 8.04565 14.4257 6.64486 13.3955 5.61044C12.3621 4.57914 10.962 4 9.50248 4C8.04291 4 6.64291 4.57914 5.60942 5.61044C4.57877 6.64458 4 8.04548 4 9.50597C4 10.9665 4.57877 12.3674 5.60942 13.4015C6.43357 14.2275 7.49958 14.7689 8.65241 14.9469C8.63427 14.7036 8.63107 14.4595 8.64281 14.2158L8.63748 14.2169ZM9.14091 12.1133C8.57292 12.0338 8.04619 11.7716 7.64021 11.3662C7.14775 10.871 6.87129 10.2008 6.87129 9.50223C6.87129 8.80363 7.14775 8.13345 7.64021 7.63825C8.13486 7.14463 8.80495 6.86743 9.50355 6.86743C10.2021 6.86743 10.8722 7.14463 11.3669 7.63825C11.8596 8.13331 12.1362 8.80354 12.1362 9.50223C12.1362 10.2009 11.8596 10.8712 11.3669 11.3662C10.5376 12.1981 10.0718 13.3252 10.0718 14.5003C10.0718 15.6753 10.5376 16.8024 11.3669 17.6343C12.1981 18.4618 13.3231 18.9262 14.4956 18.9258C15.6682 18.9254 16.7929 18.4603 17.6235 17.6322C18.4528 16.8002 18.9186 15.6732 18.9186 14.4981C18.9186 13.3231 18.4528 12.196 17.6235 11.3641C16.9967 10.736 16.1954 10.3112 15.3239 10.1453C15.2974 10.3833 15.2568 10.6196 15.2023 10.8529C15.9284 10.9922 16.596 11.3461 17.119 11.8689C17.8142 12.5658 18.2046 13.5103 18.2046 14.4949C18.2046 15.4796 17.8142 16.424 17.119 17.1209C16.4225 17.8168 15.4784 18.2077 14.4941 18.2077C13.5098 18.2077 12.5658 17.8168 11.8692 17.1209C11.1741 16.424 10.7837 15.4796 10.7837 14.4949C10.7837 13.5103 11.1741 12.5658 11.8692 11.8689C12.4967 11.2391 12.849 10.3861 12.849 9.4969C12.849 8.60765 12.4967 7.75467 11.8692 7.12489C11.24 6.49649 10.3872 6.14357 9.49822 6.14357C8.60918 6.14357 7.75646 6.49649 7.12718 7.12489C6.49976 7.75467 6.14745 8.60765 6.14745 9.4969C6.14745 10.3861 6.49976 11.2391 7.12718 11.8689C7.60348 12.3478 8.21379 12.6708 8.87746 12.7953C8.94819 12.5614 9.03369 12.3321 9.13344 12.109" fill="white"/>
</svg>
