<svg width="24" height="24" viewBox="0 0 24 24" fill="none" xmlns="http://www.w3.org/2000/svg">
<rect x="0.5" y="0.5" width="23" height="23" rx="11.5" fill="white"/>
<rect x="0.5" y="0.5" width="23" height="23" rx="11.5" stroke="#ED1C24"/>
<path d="M14.8114 12.8282C14.7936 12.4798 15.0638 12.2158 15.3945 12.2079C15.7324 12.2158 16.0025 12.4798 15.9775 12.8282C16.0025 12.8766 15.9896 12.9448 15.9775 12.9836C15.9446 13.104 15.8244 13.2061 15.6602 13.1909C15.5194 13.2061 15.389 13.0784 15.3945 12.9323C15.389 12.8824 15.3965 12.8453 15.3945 12.8282V12.7769C15.3579 12.9132 15.3331 13.036 15.3413 13.1386C15.3331 13.7337 15.8076 14.1961 16.4023 14.173C16.8166 14.1961 17.1825 13.9524 17.3571 13.6049C17.5021 13.3404 17.5904 13.0235 17.5686 12.6736C17.5901 11.5728 16.6627 10.6676 15.5013 10.6562C14.3711 10.6676 13.4433 11.5728 13.4326 12.6736V15.4149C13.4326 17.5062 11.7065 19.1895 9.56132 19.191C9.27684 19.1895 8.98347 19.1561 8.71309 19.0874H8.66016C9.19991 19.3367 9.82996 19.4843 10.5166 19.5009C12.8629 19.4845 14.7822 17.6124 14.7585 15.3116V12.7769L14.8114 12.8282Z" fill="#ED1C24"/>
<path fill-rule="evenodd" clip-rule="evenodd" d="M15.3931 9.36189C14.0425 9.34985 12.9454 10.4203 12.9536 11.741V11.6897V15.4137C12.9439 17.249 11.4427 18.725 9.55969 18.7241C8.25384 18.725 7.10927 17.9852 6.53711 16.9136C7.05114 17.3918 7.75737 17.7018 8.55216 17.6893C10.0935 17.702 11.3551 16.4714 11.363 14.948V11.741C11.3571 9.56466 13.1661 7.80113 15.3931 7.81004H15.2867C16.4837 7.80088 17.5657 7.3243 18.3625 6.56836C18.2371 8.11829 16.9053 9.34985 15.2867 9.36189H15.3931Z" fill="#ED1C24"/>
<path fill-rule="evenodd" clip-rule="evenodd" d="M5.47692 9.93077C5.84847 9.90813 6.15248 10.1646 6.21977 10.5001V14.948C6.21161 16.2085 7.25401 17.2245 8.55294 17.2236C9.82391 17.2245 10.8653 16.2085 10.8859 14.948V11.741C10.8616 9.29717 12.8925 7.31665 15.3939 7.29353C17.1606 7.28125 18.6064 6.107 19 4.5C18.0924 5.1731 16.9375 5.59839 15.712 5.58659C15.4688 5.59839 15.4946 5.61211 15.2875 5.58659H15.3404C11.8286 5.58659 9.04718 8.31967 9.03011 11.741V14.7412V14.6899C9.02838 14.7135 9.02838 14.7145 9.03011 14.7412C9.02838 15.0461 8.75429 15.3136 8.39413 15.3102C8.07849 15.3136 7.80366 15.0458 7.81059 14.7412C7.80391 14.7149 7.80391 14.7135 7.81059 14.6899V10.5516C7.80391 10.134 7.47639 9.81349 7.06849 9.82746C7.10312 9.59073 7.30868 9.41276 7.54615 9.41349C7.63496 9.41276 7.70917 9.43058 7.75839 9.4655C7.8613 9.48862 7.97657 9.50596 8.07651 9.51704C8.74118 9.50596 9.26362 8.99638 9.24309 8.37892C9.26362 8.35459 9.26313 8.34135 9.24309 8.32762C8.99548 8.65682 8.57223 8.87549 8.07651 8.89644C8.01467 8.85357 7.89469 8.85454 7.81083 8.84466C7.26341 8.85454 6.8226 9.28368 6.80356 9.82746H5V9.93077H5.53085H5.47692Z" fill="#ED1C24"/>
</svg>
