<svg width="24" height="24" viewBox="0 0 24 24" fill="none" xmlns="http://www.w3.org/2000/svg">
<rect width="24" height="24" rx="12" fill="#0F2D53"/>
<path d="M10.2514 14.0605L11.0296 14.9603L11.5294 14.3824L10.5412 13.2382L10.0419 12.6607L9.57906 12.1191L9.11914 12.7305L9.63995 13.3357L9.63904 13.3369L10.2514 14.0605Z" fill="white"/>
<path d="M20.1965 9.98265C19.4887 9.28813 18.736 8.95215 17.9598 8.9839C17.3428 9.00941 16.8395 9.26681 16.4997 9.50504C16.4866 9.51378 16.4738 9.52297 16.4613 9.5326L16.4487 9.54167C16.4074 9.57108 16.367 9.60171 16.3275 9.63352L15.7904 9.05148C15.659 8.89692 15.4583 8.6486 15.4067 8.50572C15.3674 8.39505 15.3581 8.28189 15.3458 8.2168C15.3012 7.98662 15.276 7.60449 15.276 7.60449C15.276 7.60449 15.276 7.51332 15.2328 7.41014L15.1794 7.2769C15.1794 7.2769 15.6267 7.07983 15.9468 7.0957L16.1388 7.33031L16.1456 7.09786V6.76108C16.1456 6.76108 16.1248 6.58056 15.9536 6.44404C15.8262 6.34312 15.7677 6.33428 15.61 6.31081C15.4133 6.28257 15.3772 6.33689 15.2294 6.19889L15.0941 6L14.258 6.0034L13.9306 6.12552C13.9306 6.12552 13.7503 6.16861 13.6282 6.47568L13.3789 7.26431C13.3789 7.26431 13.3108 7.52534 13.2967 7.91994C13.2814 8.31591 13.2888 7.93378 13.2888 7.93378C13.2888 7.93378 13.2711 8.52421 13.2009 8.70053L13.0659 9.16589C12.8714 9.62909 12.6738 9.85769 12.6696 9.86257L11.9184 10.7328H11.9189L11.7095 10.9758L11.5 10.7328L11.5035 10.7306L11.0424 10.2019L10.9766 10.1271H10.976L10.7455 9.86268C10.741 9.85701 10.5324 9.61605 10.333 9.12677L10.2092 8.7011C10.1389 8.52466 10.1213 7.93423 10.1213 7.93423C10.1213 7.93423 10.1281 8.31636 10.1134 7.9204C10.099 7.5258 10.0312 7.26488 10.0312 7.26488L9.78183 6.47613C9.66027 6.16918 9.47975 6.12586 9.47975 6.12586L9.15149 6.00386L8.31534 6.00045L8.1804 6.19912C8.03299 6.33711 7.99614 6.2828 7.79907 6.31103C7.64213 6.33439 7.58306 6.34346 7.45583 6.44427C7.28461 6.58056 7.26352 6.76131 7.26352 6.76131V7.0982L7.27032 7.33065L7.46229 7.09616C7.7824 7.08028 8.22995 7.27735 8.22995 7.27735L8.17609 7.41059C8.13289 7.51412 8.13289 7.60494 8.13289 7.60494C8.13289 7.60494 8.10828 7.98719 8.06304 8.21726C8.05011 8.28234 8.04206 8.39528 8.00215 8.50618C7.93343 8.69849 7.59258 9.08289 7.51615 9.16804L7.08595 9.63363C6.75621 9.36818 6.18562 9.01326 5.45504 8.98356C4.67921 8.95147 3.9255 9.28779 3.21817 9.98231L3 10.1965L3.16351 10.4545C3.18755 10.4935 3.76925 11.3936 4.81211 11.5961C5.48838 11.7272 6.22451 11.5219 6.923 11.0215L6.41478 10.4449C5.89511 10.8175 5.42442 10.9417 4.96303 10.8554C4.52738 10.7722 4.19673 10.4989 4.00091 10.293C4.47012 9.90724 4.945 9.72128 5.41717 9.7384C6.24379 9.76868 6.82367 10.4185 6.82889 10.4233L8.05374 11.842L8.55233 11.2627L7.61549 10.1782L8.71085 8.80961L9.15784 8.25275C9.2625 8.80383 9.76357 9.75462 9.978 10.0863L8.76153 11.5047L8.27576 12.0705H8.2752L8.26839 12.0796L8.26272 12.0853H8.26329L7.74396 12.6912C7.47273 12.973 6.5284 13.91 5.42125 14.5064C5.42125 14.5064 5.76834 14.7452 6.22497 14.7366C6.49892 14.7332 6.81233 14.6404 7.11577 14.354C7.23959 14.2361 7.42023 14.0749 7.597 13.9016C7.597 13.9016 7.51423 14.105 7.71153 14.4722C7.86347 14.7545 8.12949 14.9219 8.48917 14.9357C9.0517 14.9565 9.4564 14.6608 9.73817 14.3228L9.33439 13.8764C9.33439 13.8764 8.96836 14.3963 8.52364 14.0786C8.36047 13.9249 8.37305 13.6654 8.37305 13.6654C8.37305 13.6654 8.36965 13.5786 8.45436 13.3966C8.75711 12.8818 9.58634 11.799 10.0783 11.1691L10.4576 10.6883L10.998 11.3124L10.9991 11.3113L11.2118 11.5577L11.2109 11.5588L11.2229 11.5726L10.2758 12.7471L10.7066 13.2295L11.7074 12.1354L11.7097 12.1377L11.712 12.1354L12.9351 13.4954L12.934 13.4965L13.4407 14.0659V14.0651L13.6214 14.2576L13.7464 14.3971C14.0248 14.7029 14.4094 14.9545 14.9312 14.9354C15.2915 14.9215 15.5564 14.7542 15.7086 14.4718C15.9066 14.1037 15.8231 13.9012 15.8231 13.9012C16.0004 14.0747 16.1811 14.2357 16.305 14.3537C17.1108 15.1166 17.9989 14.5064 17.9989 14.5064C16.8915 13.91 15.9474 12.9733 15.6755 12.6912L15.3806 12.346L14.7632 13.0384C15.0631 13.4485 15.0478 13.6661 15.0478 13.6661C15.0478 13.6661 15.0604 13.9255 14.8976 14.0791C14.4548 14.4014 14.063 13.8478 14.063 13.8478L12.8346 12.356L12.8278 12.3492L12.1974 11.5714L12.2094 11.5574L12.2083 11.5565L12.676 11.0151L12.6755 11.0144L12.9578 10.689L13.0816 10.8454L13.8842 11.9309L14.4486 11.2601L13.5301 10.1891L13.529 10.1925L13.4388 10.0875C13.653 9.7553 14.1543 8.80462 14.2584 8.25377L14.7052 8.81052L15.8002 10.1793L15.5758 10.4388H15.5764L14.6556 11.5056L13.8601 12.4263L13.6208 12.703L14.1208 13.2802L14.518 12.8209L14.559 12.773L15.1554 12.0838L15.5031 11.6809L16.5886 10.4245C16.5931 10.42 17.1734 9.77015 17.9995 9.73954C18.4715 9.72241 18.9461 9.90849 19.4157 10.2942C19.2206 10.5001 18.8889 10.7733 18.4543 10.8564C17.9926 10.9428 17.5174 10.8154 16.9973 10.4419L16.5019 11.0179C17.2004 11.5183 17.9291 11.7283 18.6044 11.5972C19.6481 11.3947 20.2296 10.4946 20.2535 10.4556L20.417 10.1976L20.1965 9.98265ZM12.4198 15.7145L11.9074 16.3188L11.9653 16.3873L11.9642 16.3879L12.2753 16.7483C12.4388 16.9486 12.8882 17.4668 12.9576 17.9999C12.9576 17.9999 13.4015 17.3887 13.0638 16.531C13.0644 16.531 13.0143 16.3051 12.4202 15.7144" fill="white"/>
<path d="M12.014 14.5596L11.207 15.4933C10.3951 16.2501 10.3327 16.5319 10.3327 16.5319C9.99514 17.3905 10.4392 18.0007 10.4392 18.0007C10.5081 17.4682 10.9573 16.9501 11.121 16.7509L11.4325 16.3894L11.4314 16.3883L12.5468 15.0975L12.5477 15.0984L13.208 14.3343L12.7147 13.748L12.014 14.5596Z" fill="white"/>
</svg>
