<svg width="25" height="24" viewBox="0 0 25 24" fill="none" xmlns="http://www.w3.org/2000/svg">
<rect x="0.256836" width="24" height="24" rx="12" fill="#DCDFEA"/>
<path d="M8.13312 8.19551C8.95499 8.17941 9.77865 8.19336 10.6009 8.18871H19.865C19.9601 8.18227 20.0549 8.25523 20.0703 8.35073C20.0903 8.4616 20.0359 8.56639 19.9916 8.66402C19.8414 8.97661 19.7001 9.29312 19.551 9.60571C19.4823 9.75592 19.3553 9.87322 19.2069 9.94261C19.0424 10.0152 18.8582 9.99768 18.6837 9.99947C15.0596 9.99912 11.4356 9.99947 7.81196 9.99912C7.63492 9.99017 7.45144 10.0252 7.28085 9.96729C7.14029 9.9072 7.15424 9.72301 7.20538 9.60571C7.37133 9.2545 7.53263 8.90114 7.69822 8.54958C7.78155 8.37361 7.95179 8.25488 8.13312 8.19551ZM11.8187 11.1439C12.0365 10.9068 12.2257 10.6414 12.4671 10.4276C12.5086 10.4755 12.5493 10.5266 12.5719 10.5874C12.6409 10.7727 12.711 10.958 12.7804 11.1436C13.0686 11.1518 13.3598 11.1275 13.6469 11.1565C13.7607 11.1733 13.7432 11.322 13.687 11.3918C13.5107 11.6228 13.3054 11.8299 13.1234 12.0563C13.2002 12.238 13.2675 12.4232 13.3354 12.6081C13.3605 12.6836 13.3698 12.8077 13.2686 12.8263C12.9925 12.8907 12.7063 12.841 12.4267 12.8617C12.2332 13.0606 12.0672 13.2855 11.8737 13.4847C11.8433 13.5244 11.7933 13.5337 11.7478 13.5266C11.6384 13.3138 11.5697 13.0824 11.4825 12.8599C11.191 12.8474 10.897 12.8778 10.6077 12.8438C10.4839 12.8288 10.5011 12.6754 10.5612 12.6013C10.7371 12.3678 10.9532 12.1657 11.1252 11.929C11.0615 11.7212 10.9592 11.5266 10.9045 11.3163C10.8766 11.2173 10.9825 11.1557 11.068 11.154C11.3172 11.1318 11.5683 11.1497 11.8187 11.1439ZM5.46115 14.0119C7.22112 14.0001 8.98181 14.0105 10.7421 14.0069C12.8651 14.0073 14.9885 14.0062 17.1115 14.0076C17.2288 13.9958 17.3575 14.0884 17.3479 14.214C17.3575 14.3066 17.3089 14.3885 17.2728 14.4693C17.1268 14.7794 16.9827 15.0902 16.8386 15.401C16.7302 15.636 16.4845 15.8363 16.2145 15.8091C12.3537 15.8066 8.49255 15.8105 4.63177 15.8073C4.4626 15.8073 4.39679 15.6024 4.4651 15.469C4.57955 15.2004 4.71045 14.9389 4.83169 14.6735C4.91574 14.5097 4.96724 14.3206 5.10672 14.1922C5.20436 14.101 5.32631 14.0276 5.46115 14.0119Z" fill="#001246"/>
</svg>
