<svg width="25" height="24" viewBox="0 0 25 24" fill="none" xmlns="http://www.w3.org/2000/svg">
<rect x="0.756836" y="0.5" width="23" height="23" rx="11.5" fill="white"/>
<rect x="0.756836" y="0.5" width="23" height="23" rx="11.5" stroke="#1B1D80"/>
<path fill-rule="evenodd" clip-rule="evenodd" d="M19.962 10.1462C14.6592 10.2932 9.52735 11.4967 9.05055 13.2031C9.00698 13.3579 8.99609 13.511 8.99609 13.6668C8.99609 15.3475 12.5044 15.9223 16.3025 16.3959C16.3676 16.4035 16.3648 16.3516 16.3436 16.3143C16.3286 16.2878 16.2717 16.1874 16.2328 16.1183C16.2176 16.0911 16.2012 16.0734 16.1481 16.0581C14.0693 15.5293 11.959 14.7566 11.959 14.0361C11.959 12.6733 15.4949 11.3234 19.5215 10.7063C19.6544 10.6807 19.7179 10.6558 19.8071 10.5849C19.9188 10.4959 20.1645 10.2952 20.2684 10.2122C20.3362 10.1559 20.3121 10.1381 20.2865 10.1387C20.1787 10.1409 20.0707 10.143 19.962 10.1463V10.1462Z" fill="#1B1D80"/>
<path fill-rule="evenodd" clip-rule="evenodd" d="M14.0965 18.3727C11.3419 17.6824 8.61201 15.3705 9.0421 13.2287C9.6705 10.1038 13.8731 7.07664 19.1178 5.65406C19.236 5.61921 19.2797 5.54102 19.1281 5.54102H11.97C10.7306 5.54102 10.4621 5.70122 9.98198 6.35076C9.72626 6.69622 7.58401 9.65017 6.61799 10.9816C6.49372 11.1401 6.31794 11.3106 5.92696 11.3106H4.2002L4.20161 11.3123C6.24802 17.094 8.44614 18.4574 10.648 18.4574H14.1246C14.1736 18.4574 14.2228 18.4046 14.0965 18.3727Z" fill="#DF0011"/>
</svg>
