<svg width="24" height="24" viewBox="0 0 24 24" fill="none" xmlns="http://www.w3.org/2000/svg">
<rect width="24" height="24" rx="12" fill="#01529B"/>
<path fill-rule="evenodd" clip-rule="evenodd" d="M14.574 11.238H15.052C14.9564 10.5714 14.6696 10.0952 14.3828 9.61903C13.9049 8.95237 13.1401 8.47618 12.2798 8.09524C12.2798 8.09524 12.2798 8 12.1842 8L12.2798 8.09524C13.1401 8.76189 14.0005 9.52378 14.3828 10.5714C14.4248 10.6967 14.4483 10.8036 14.4696 10.9003C14.4968 11.0241 14.5203 11.1311 14.574 11.238ZM12.3754 10.381L12.6622 10.1906L13.5225 11.0477L12.5666 11.5239L13.5225 13.4286C13.3951 13.5556 13.2676 13.5979 13.1401 13.6403C13.0764 13.6614 13.0127 13.6826 12.949 13.7143L12.2798 12.1905L12.0886 11.7144L11.4195 12.0001L11.0371 11.0477L12.2798 10.4763L12.3754 10.381ZM14.3828 12.381C14.4784 12.0953 14.574 11.8095 14.574 11.4286V11.3334H16.2947H23.5596L21.9346 12.4762L16.2947 12.1905H15.052C14.8608 12.7619 14.6696 13.2381 14.3828 13.5238C13.8093 14.1905 13.0446 14.4762 12.2798 14.4762H12.1842C11.5151 14.3809 10.6548 14.0952 10.1768 13.5238C9.79444 13.1429 9.60325 12.6667 9.50766 12.1905L7.40464 12.2857L2.72065 12.5714L1 11.4286H7.40464H9.98562C9.98562 11.7442 10.0512 11.9944 10.128 12.2875L10.1281 12.2876L10.1285 12.2893C10.1443 12.3495 10.1606 12.4115 10.1768 12.4762C10.5592 13.3333 11.3239 13.7143 12.1842 13.8095H12.2798C13.1401 13.8095 14.0961 13.3333 14.3828 12.4762V12.381ZM14.8946 12.9935C14.912 12.9525 14.9308 12.9083 14.9564 12.8572L16.2947 13.0477L19.5448 13.4287L18.3977 14.0001L16.2947 13.5239L14.6696 13.3334C14.8096 13.194 14.8471 13.1056 14.8946 12.9935ZM14.6696 13.4285C14.5421 13.492 14.4997 13.5555 14.4572 13.619C14.4478 13.6329 14.4385 13.6469 14.4283 13.6608C14.4152 13.6786 14.4007 13.6964 14.3828 13.7142L14.1916 13.9047H14.3828L16.2947 14.4761H16.3903L17.7285 13.9999L16.2947 13.7142L14.6696 13.4285ZM16.2947 12.8571L15.1476 12.6667C15.1476 12.5714 15.1476 12.381 15.2431 12.2857L16.2947 12.381L21.4566 12.7619L20.1183 13.3333L16.2947 12.8571ZM10.368 13.9047C10.3315 13.8683 10.3089 13.832 10.2896 13.8009C10.2584 13.7506 10.2359 13.7142 10.1768 13.7142L9.89 13.4285L7.40461 13.9047L6.83107 14.0952L7.40461 14.2857L8.07376 14.5714L10.1768 13.9047H10.368ZM9.47205 12.5416C9.49127 12.5878 9.50768 12.6272 9.50768 12.6667L7.40466 12.9524L4.34573 13.3333L3.10303 12.6667L7.40466 12.4762L9.41208 12.2857C9.41208 12.3973 9.44488 12.4762 9.47205 12.5416ZM14.0005 14.6667C14.1338 14.6003 14.2206 14.4876 14.2934 14.3931C14.325 14.3521 14.3539 14.3146 14.3828 14.2857C14.4784 14.2857 14.4784 14.1905 14.4784 14.1905L14.3828 14.0953L14.0961 14C13.5225 14.381 12.949 14.5714 12.3754 14.5714H12.2798C11.8019 14.5714 11.2283 14.381 10.6548 14.0953L10.2724 14.4762C10.368 14.5714 10.5592 14.6667 10.5592 14.6667L10.1768 15.4286L10.0812 15.7143C10.0812 15.7619 10.1051 15.7857 10.129 15.8095C10.1529 15.8333 10.1768 15.8571 10.1768 15.9048C10.2724 16 10.5592 16 10.6548 16L11.1327 14.9524C11.4195 15.0476 11.8019 15.0476 12.1842 15.0476H12.2798C12.6622 15.0476 13.0446 14.9524 13.4269 14.8572L13.9049 16L14.3828 15.8095L14.574 15.7143L14.3828 15.3333L14.0005 14.6667ZM9.66503 12.9935C9.71258 13.1056 9.75008 13.194 9.89003 13.3334L7.40465 13.7144L6.16196 14.0001L5.01486 13.5239L7.40465 13.1429L9.60326 12.8572C9.62887 12.9083 9.64762 12.9525 9.66503 12.9935Z" fill="white"/>
</svg>
