<svg width="24" height="24" viewBox="0 0 24 24" fill="none" xmlns="http://www.w3.org/2000/svg">
<rect width="24" height="24" rx="12" fill="#C7CED8"/>
<g clip-path="url(#clip0_24635_730)">
<path d="M17.5933 16.8419C17.6217 16.7944 17.6494 16.7465 17.6757 16.6984C17.6854 16.6815 17.6954 16.6643 17.7051 16.6474C17.8864 16.3282 17.956 15.9858 17.935 15.6213C17.9095 15.1734 17.6799 14.81 17.4833 14.4323C16.7842 13.0899 16.0837 11.7482 15.3816 10.4076C15.3579 10.3546 15.3373 10.2998 15.3025 10.2567C15.2702 10.1952 15.2383 10.1339 15.2065 10.0726C15.2014 10.063 15.1975 10.0541 15.1935 10.0446C15.1726 9.93555 15.2059 9.83012 15.2665 9.71805C15.2834 9.68894 15.3009 9.66026 15.3179 9.63076C15.3247 9.61987 15.3315 9.60897 15.3389 9.59792C15.5459 9.28022 15.7502 8.96039 15.9515 8.63943C15.9601 8.62903 15.968 8.6178 15.9762 8.60718C15.9791 8.6022 15.9814 8.5964 15.9847 8.59164C15.9951 8.57363 16.0067 8.55688 16.0183 8.53953C16.0842 8.42537 16.1527 8.31273 16.2125 8.19706C16.2244 8.17026 16.2356 8.144 16.2459 8.11829C16.249 8.11036 16.252 8.10342 16.2548 8.09587C16.2621 8.07711 16.2694 8.05933 16.2763 8.04134C16.2789 8.03417 16.2813 8.02739 16.2839 8.02023C16.2909 8.00125 16.2974 7.98304 16.3034 7.96559C16.3051 7.96094 16.3066 7.95668 16.308 7.95241C16.3182 7.92255 16.3273 7.89461 16.3355 7.86918C16.5128 7.3438 16.4349 6.70992 16.436 6.18288C16.4361 6.13136 16.4288 6.08478 16.417 6.04171C16.4111 5.93459 16.3778 5.82701 16.3264 5.74216C16.2635 5.63893 16.1698 5.5542 16.0609 5.50104C15.9602 5.4337 15.8402 5.39456 15.7194 5.39169C15.6202 5.38959 15.5104 5.41455 15.4146 5.46297C15.3717 5.47391 15.3275 5.49131 15.2829 5.51717C14.8266 5.78136 14.2391 6.03109 13.8728 6.44732C13.8544 6.46688 13.8346 6.48912 13.8144 6.51273C13.8115 6.51612 13.8083 6.5199 13.8053 6.5233C13.793 6.53765 13.7805 6.55238 13.7677 6.5675C13.7628 6.57336 13.7582 6.57884 13.7533 6.5847C13.7414 6.59926 13.729 6.6146 13.7168 6.63053C13.7117 6.63678 13.7069 6.64324 13.7018 6.64948C13.6845 6.67166 13.6676 6.69405 13.6503 6.71781C13.5798 6.82778 13.5165 6.94346 13.4508 7.05724C13.4418 7.07551 13.4325 7.09417 13.4225 7.11239C13.4194 7.11775 13.4162 7.12251 13.4133 7.12749C13.4082 7.13986 13.4024 7.15239 13.3977 7.16496C13.2202 7.50022 13.0453 7.837 12.8739 8.17476C12.868 8.18669 12.862 8.19801 12.856 8.20934C12.8392 8.23845 12.8227 8.26779 12.8061 8.2975C12.7396 8.40571 12.6651 8.48782 12.5598 8.52408C12.5501 8.52515 12.5399 8.52638 12.5291 8.5268C12.4597 8.52962 12.3906 8.53267 12.3216 8.53572C12.2668 8.52708 12.2089 8.53703 12.1514 8.54267C10.639 8.60469 9.12714 8.66912 7.61503 8.73491C7.19002 8.75361 6.76018 8.73631 6.35949 8.93811C6.03216 9.10156 5.77048 9.33305 5.58464 9.6497C5.57491 9.66656 5.56496 9.6838 5.55523 9.70065C5.52645 9.74789 5.4988 9.79577 5.47213 9.84371C5.3799 10.0035 5.28745 10.1636 5.19522 10.3233C5.09658 10.4942 5.09434 10.6563 5.17402 10.7749C5.17455 10.7757 5.17546 10.7767 5.17599 10.7775C5.18457 10.7896 5.19337 10.8014 5.20358 10.8124C5.2054 10.8144 5.20744 10.8161 5.20925 10.8182C5.21856 10.8282 5.22869 10.8376 5.23941 10.8468C5.24236 10.8496 5.2459 10.8521 5.24944 10.8547C5.2591 10.8623 5.26898 10.8695 5.27968 10.8762C5.28662 10.8807 5.29399 10.8845 5.30115 10.8886C5.30755 10.8923 5.31395 10.896 5.32057 10.8993C5.37748 10.9286 5.4448 10.9511 5.52395 10.9636C6.1281 11.0616 6.73276 11.1579 7.33736 11.2552C8.46253 11.4369 9.58742 11.62 10.713 11.7984C10.7444 11.8033 10.7715 11.8092 10.7939 11.8165C10.8538 11.8424 10.8671 11.8899 10.8023 12.0073C10.5455 12.472 10.306 12.9461 10.0585 13.4156C9.90014 13.716 9.73555 14.0132 9.58308 14.3165C9.52173 14.4384 9.44357 14.499 9.30621 14.5177C8.91904 14.57 8.53376 14.6408 8.14724 14.698C7.89028 14.7361 7.65293 14.8054 7.43667 14.9104C7.43645 14.9108 7.43526 14.9111 7.43466 14.9113C7.40371 14.9266 7.37314 14.9422 7.34311 14.9585C7.33804 14.9612 7.33335 14.9641 7.32865 14.9671C7.30183 14.9822 7.27538 14.9976 7.24946 15.0138C7.24395 15.0172 7.23881 15.0209 7.2333 15.0244C7.20738 15.0406 7.182 15.0576 7.15677 15.0752C7.15349 15.0774 7.15037 15.0802 7.1471 15.0824C6.94052 15.2297 6.75905 15.4197 6.60695 15.6588C6.50271 15.8228 6.48602 15.9787 6.54664 16.1015C6.54924 16.1066 6.55123 16.1118 6.55383 16.1169C6.55542 16.1194 6.55739 16.122 6.55899 16.1245C6.58989 16.1771 6.63593 16.2225 6.69725 16.259C6.70139 16.2614 6.70613 16.2636 6.71065 16.2662C6.72194 16.2727 6.73324 16.2792 6.74618 16.2847C6.78259 16.3016 6.8231 16.3158 6.86792 16.3269C7.03009 16.3669 7.19211 16.4063 7.35451 16.4459C7.99398 16.6036 8.63351 16.7604 9.2737 16.916C9.28677 16.9194 9.29968 16.9223 9.31274 16.9257C9.32738 16.9291 9.34092 16.9343 9.35489 16.9388C9.36255 16.9412 9.37044 16.9432 9.37788 16.946C9.39103 16.951 9.40271 16.9577 9.41482 16.9637C9.4222 16.9675 9.43002 16.9705 9.43755 16.9748C9.4447 16.9789 9.4512 16.9842 9.45851 16.9889C9.46974 16.9964 9.48179 17.0034 9.49235 17.0121C9.49847 17.0171 9.50414 17.023 9.51003 17.0284C9.52113 17.0379 9.53223 17.0473 9.54245 17.0583C9.55198 17.0679 9.56091 17.0777 9.57043 17.0873C10.0253 17.5639 10.4808 18.0394 10.9371 18.5143C11.0529 18.6347 11.168 18.7554 11.2835 18.8762C11.3151 18.9093 11.348 18.9375 11.3809 18.9605C11.3919 18.9684 11.4036 18.9752 11.4147 18.9821C11.4188 18.9845 11.4231 18.9874 11.4276 18.9901C11.4895 19.0247 11.5519 19.0419 11.6132 19.0425C11.6161 19.0427 11.6194 19.0431 11.6224 19.0432C11.6281 19.0429 11.6336 19.0421 11.6393 19.0418C11.776 19.0328 11.9028 18.9401 11.9926 18.7682C12.1236 18.5169 12.1973 18.2648 12.2217 18.0122C12.2219 18.0082 12.2228 18.0041 12.223 18.0002C12.2257 17.9696 12.2277 17.9391 12.2288 17.9085C12.229 17.902 12.2296 17.8957 12.2299 17.8892C12.231 17.8587 12.231 17.8281 12.2308 17.7973C12.2306 17.7915 12.2307 17.786 12.2309 17.7805C12.2301 17.7463 12.2285 17.7117 12.226 17.6776C12.2263 17.6772 12.226 17.676 12.2258 17.6754C12.2084 17.436 12.1497 17.1958 12.0545 16.9539C11.911 16.5901 11.7794 16.2215 11.6311 15.86C11.5785 15.7321 11.5919 15.6341 11.667 15.5196C11.8533 15.2359 12.0285 14.9448 12.2094 14.6575C12.4923 14.2084 12.7835 13.7641 13.0572 13.3091C13.1262 13.1948 13.1738 13.1819 13.2265 13.221C13.2443 13.2364 13.2628 13.2573 13.2827 13.282C13.9998 14.168 14.721 15.0502 15.441 15.9338C15.8277 16.4084 16.2128 16.8841 16.6002 17.3585C16.6508 17.4204 16.7041 17.468 16.7576 17.5025C16.7637 17.5065 16.7701 17.5102 16.7765 17.5139C16.7837 17.5181 16.7908 17.5222 16.798 17.5263C16.8091 17.5323 16.8203 17.5372 16.8318 17.5417C16.8358 17.5435 16.8394 17.5451 16.8436 17.5465C16.8567 17.5516 16.8698 17.555 16.8835 17.5583C16.8862 17.5588 16.8887 17.5598 16.8914 17.5603C16.906 17.5637 16.9205 17.5654 16.9353 17.5668C16.9363 17.5668 16.9376 17.5671 16.9386 17.5672C17.0811 17.5769 17.22 17.4937 17.3191 17.323C17.4113 17.1633 17.5037 17.0032 17.596 16.8434L17.5933 16.8419Z" fill="white"/>
</g>
<defs>
<clipPath id="clip0_24635_730">
<rect width="16.273" height="16" fill="white" transform="translate(4 4)"/>
</clipPath>
</defs>
</svg>
