<svg width="24" height="24" viewBox="0 0 24 24" fill="none" xmlns="http://www.w3.org/2000/svg">
<rect width="24" height="24" rx="12" fill="#003595"/>
<path fill-rule="evenodd" clip-rule="evenodd" d="M16.4274 6C16.4274 6 15.0479 9.13516 14.4577 10.4335C13.9322 11.5945 13.3883 12.7821 12.7518 13.9431C11.9856 15.3412 10.8676 15.9948 9.66864 15.9948C8.13172 15.9948 7.1017 15.0731 7.1017 13.6174C7.1017 13.0015 7.26604 12.421 7.71508 11.3043C7.99978 10.5931 8.27523 9.98597 8.57845 9.2836C9.05758 8.18685 9.53902 7.09232 10.0251 6H7.80535C7.11559 7.54653 6.50452 8.93131 5.8217 10.4867C5.28702 11.7075 5 12.8109 5 13.7969C5 16.2275 6.85403 18 9.52514 18C11.1732 18 12.7425 17.4284 13.8095 16.1256C14.3766 15.4343 14.6891 14.9003 15.5641 13.0192C16.601 10.7947 17.7282 8.25554 18.7143 6H16.4274Z" fill="white"/>
</svg>
