<svg width="25" height="24" viewBox="0 0 25 24" fill="none" xmlns="http://www.w3.org/2000/svg">
<rect x="0.756836" y="0.5" width="23" height="23" rx="11.5" fill="white"/>
<rect x="0.756836" y="0.5" width="23" height="23" rx="11.5" stroke="#A7A9AC"/>
<path d="M4.50684 10.0407C4.50684 13.6846 8.17696 14.1726 8.17696 19.2491C8.17696 19.2491 11.849 19.3677 11.849 16.8113C11.849 14.1726 4.17614 9.69627 5.75351 6.94336C4.54865 8.17693 4.50684 10.0407 4.50684 10.0407Z" fill="#A7A9AC"/>
<path d="M5.93955 6.74314C4.3029 9.63707 12.0282 14.2307 12.0282 16.6678C12.0282 17.5052 11.942 18.0855 11.3331 18.4468C11.3331 18.4468 14.2588 17.1077 14.67 15.3058V14.4035C14.1066 11.5158 8.748 9.28391 8.69371 7.03017C8.66252 5.76727 9.88983 5.41848 9.88983 5.41848C9.71351 5.40647 9.53683 5.40044 9.36009 5.40039C6.79062 5.39976 5.93955 6.74314 5.93955 6.74314Z" fill="#A7A9AC"/>
<path d="M16.4099 6.2265C14.4887 6.2265 10.9603 5.47213 10.2989 5.47962C8.97855 5.49646 8.26973 7.10691 9.39473 8.33424C9.39473 8.33424 9.96004 7.70217 10.501 7.51746C11.2523 7.25915 12.1233 7.32279 13.2071 7.38644C14.3371 7.45196 15.7005 7.51871 17.4014 7.21984C19.4748 6.85608 20.1718 6.04742 20.5118 5.25C19.6801 5.93886 18.3317 6.2265 16.4099 6.2265Z" fill="#B5985A"/>
<path d="M17.4777 7.36009C15.7762 7.65897 14.4141 7.59283 13.2835 7.5267C12.199 7.46305 11.328 7.40003 10.5767 7.65834C10.0351 7.84241 9.4873 8.43143 9.4873 8.43143C9.4873 8.43143 10.8588 9.86529 11.6805 10.4281C12.2096 8.72782 15.5591 9.39732 16.928 8.90814C18.6533 8.29229 19.3777 7.25589 19.6516 6.56954L19.6435 6.56641C19.1687 6.90148 18.486 7.18289 17.4777 7.36011" fill="#B5985A"/>
<path d="M17.019 9.02187C15.5446 9.49422 13.5055 9.13419 12.3904 9.78748C11.9256 10.0589 11.7939 10.5306 11.7939 10.5306C11.7939 10.5306 12.8416 11.3742 13.81 12.4786C13.81 12.2191 13.8992 11.8029 14.2367 11.4653C14.8357 10.8663 18.0997 10.4507 18.7087 8.04102C18.2457 8.57077 17.2792 8.93827 17.019 9.02189" fill="#B5985A"/>
</svg>
