<?xml version="1.0" encoding="UTF-8"?>
<svg version="1.1" xmlns="http://www.w3.org/2000/svg" width="52" height="52">
<path d="M0 0 C0.74507812 0.01353516 1.49015625 0.02707031 2.2578125 0.04101562 C4.08885416 0.07622796 5.91952169 0.13003149 7.75 0.1875 C7.75 0.8475 7.75 1.5075 7.75 2.1875 C8.61818359 2.35765625 8.61818359 2.35765625 9.50390625 2.53125 C15.57353843 4.30463818 19.75627335 8.65502794 22.75 14.0625 C23.43518667 15.42836554 24.10885819 16.80041434 24.75 18.1875 C25.08 18.1875 25.41 18.1875 25.75 18.1875 C25.75 23.4675 25.75 28.7475 25.75 34.1875 C25.09 34.1875 24.43 34.1875 23.75 34.1875 C23.63527344 34.76628906 23.52054688 35.34507813 23.40234375 35.94140625 C21.70583924 41.78266429 17.47965364 46.16471512 12.3125 49.1875 C5.0322525 52.4207217 -3.40343978 52.68828143 -11 50.3359375 C-17.32133889 47.19662393 -21.30276266 42.13569156 -24.3828125 35.890625 C-26.61629539 28.92859725 -26.58354353 19.71351869 -23.25 13.125 C-20.3669915 8.7635256 -16.56904325 6.02106714 -12.25 3.1875 C-11.67894531 2.64222656 -11.10789062 2.09695312 -10.51953125 1.53515625 C-7.14212609 -0.47035973 -3.80329858 -0.13103237 0 0 Z " fill="#2C2B5A" transform="translate(26.25,0.8125)"/>
<path d="M0 0 C0.66 0.99 1.32 1.98 2 3 C2.33 2.34 2.66 1.68 3 1 C3.66 1 4.32 1 5 1 C5 2.32 5 3.64 5 5 C5.99 4.01 6.98 3.02 8 2 C8.99 2.33 9.98 2.66 11 3 C9.24615235 5.66398829 7.50140818 8.00096668 5 10 C1.9761255 10.33598606 0.00391482 9.77687452 -3 9 C-3 9.99 -3 10.98 -3 12 C-2.236875 11.79375 -1.47375 11.5875 -0.6875 11.375 C2 11 2 11 5 13 C4.01 13.495 4.01 13.495 3 14 C3.99 14.99 4.98 15.98 6 17 C4.68 16.67 3.36 16.34 2 16 C2.33 17.65 2.66 19.3 3 21 C2.01 20.67 1.02 20.34 0 20 C0 21.65 0 23.3 0 25 C-0.66 25.33 -1.32 25.66 -2 26 C-2.26554687 25.21753906 -2.53109375 24.43507813 -2.8046875 23.62890625 C-3.15789063 22.61699219 -3.51109375 21.60507812 -3.875 20.5625 C-4.22304688 19.55316406 -4.57109375 18.54382813 -4.9296875 17.50390625 C-5.74055093 14.86028249 -5.74055093 14.86028249 -8 14 C-8.99 13.34 -9.98 12.68 -11 12 C-10.67 11.67 -10.34 11.34 -10 11 C-11.65 10.67 -13.3 10.34 -15 10 C-15 9.34 -15 8.68 -15 8 C-14.34 8 -13.68 8 -13 8 C-13.66 6.68 -14.32 5.36 -15 4 C-13.741875 3.979375 -12.48375 3.95875 -11.1875 3.9375 C-10.47980469 3.92589844 -9.77210937 3.91429687 -9.04296875 3.90234375 C-7 4 -7 4 -4 5 C-3.67 4.01 -3.34 3.02 -3 2 C-2.67 2.33 -2.34 2.66 -2 3 C-1.34 2.01 -0.68 1.02 0 0 Z " fill="#B0AFC1" transform="translate(28,16)"/>
<path d="M0 0 C0.99 0 1.98 0 3 0 C5.25 2.3125 5.25 2.3125 7 5 C6.67 5.99 6.34 6.98 6 8 C5.34 7.67 4.68 7.34 4 7 C4 8.65 4 10.3 4 12 C3.01 12.495 3.01 12.495 2 13 C0.24252386 8.49646738 -0.19294408 4.82360189 0 0 Z " fill="#E0E0E7" transform="translate(24,29)"/>
<path d="M0 0 C0.66 0 1.32 0 2 0 C2 1.32 2 2.64 2 4 C2.99 3.01 3.98 2.02 5 1 C5.99 1.33 6.98 1.66 8 2 C6.02 4.31 4.04 6.62 2 9 C1.01 8.67 0.02 8.34 -1 8 C-2 6 -2 6 -1.0625 2.875 C-0.5365625 1.451875 -0.5365625 1.451875 0 0 Z " fill="#E1E1E7" transform="translate(31,17)"/>
<path d="M0 0 C-0.66 0.66 -1.32 1.32 -2 2 C-1.01 2.99 -0.02 3.98 1 5 C-1.375 5.125 -1.375 5.125 -4 5 C-4.66 4.34 -5.32 3.68 -6 3 C-7.32 3.99 -8.64 4.98 -10 6 C-10 4.02 -10 2.04 -10 0 C-6.30458414 -0.95024979 -3.69541586 -0.95024979 0 0 Z " fill="#AEAEC0" transform="translate(33,28)"/>
<path d="M0 0 C1.258125 -0.04125 2.51625 -0.0825 3.8125 -0.125 C4.52019531 -0.14820312 5.22789063 -0.17140625 5.95703125 -0.1953125 C8 0 8 0 11 2 C10.67 2.66 10.34 3.32 10 4 C8.51882199 3.71872579 7.04006751 3.42466268 5.5625 3.125 C4.73878906 2.96257813 3.91507813 2.80015625 3.06640625 2.6328125 C2.38449219 2.42398437 1.70257813 2.21515625 1 2 C0.67 1.34 0.34 0.68 0 0 Z " fill="#E9E9EE" transform="translate(13,20)"/>
<path d="M0 0 C0.33 0 0.66 0 1 0 C2 6.625 2 6.625 2 10 C1.34 10 0.68 10 0 10 C-1.49106457 7.01787087 -1.11941467 4.28390342 -1 1 C-0.67 0.67 -0.34 0.34 0 0 Z " fill="#C1C1CF" transform="translate(28,16)"/>
<path d="M0 0 C1.65 1.65 3.3 3.3 5 5 C4.67 5.99 4.34 6.98 4 8 C2.68 7.34 1.36 6.68 0 6 C0 4.02 0 2.04 0 0 Z " fill="#D7D6DF" transform="translate(26,29)"/>
<path d="M0 0 C0.66 0 1.32 0 2 0 C2.33 1.32 2.66 2.64 3 4 C1.68 4.99 0.36 5.98 -1 7 C-1.04254356 5.00045254 -1.04080783 2.99958364 -1 1 C-0.67 0.67 -0.34 0.34 0 0 Z " fill="#55547A" transform="translate(33,15)"/>
<path d="" fill="#000000" transform="translate(0,0)"/>
<path d="" fill="#000000" transform="translate(0,0)"/>
<path d="" fill="#000000" transform="translate(0,0)"/>
<path d="" fill="#000000" transform="translate(0,0)"/>
<path d="" fill="#000000" transform="translate(0,0)"/>
<path d="" fill="#000000" transform="translate(0,0)"/>
<path d="" fill="#000000" transform="translate(0,0)"/>
<path d="" fill="#000000" transform="translate(0,0)"/>
</svg>
